<?xml version="1.0" encoding="UTF-8" standalone="no"?>
<!-- Generator: Adobe Illustrator 26.0.3, SVG Export Plug-In . SVG Version: 6.00 Build 0)  -->

<svg
   xmlns:dc="http://purl.org/dc/elements/1.1/"
   xmlns:cc="http://creativecommons.org/ns#"
   xmlns:rdf="http://www.w3.org/1999/02/22-rdf-syntax-ns#"
   xmlns:svg="http://www.w3.org/2000/svg"
   xmlns="http://www.w3.org/2000/svg"
   xmlns:sodipodi="http://sodipodi.sourceforge.net/DTD/sodipodi-0.dtd"
   xmlns:inkscape="http://www.inkscape.org/namespaces/inkscape"
   version="1.0"
   id="katman_1"
   x="0px"
   y="0px"
   viewBox="0 0 462.79999 103.1"
   xml:space="preserve"
   sodipodi:docname="avon.svg"
   width="462.79999"
   height="103.1"
   inkscape:version="0.92.4 (5da689c313, 2019-01-14)"><metadata
   id="metadata18"><rdf:RDF><cc:Work
       rdf:about=""><dc:format>image/svg+xml</dc:format><dc:type
         rdf:resource="http://purl.org/dc/dcmitype/StillImage" /></cc:Work></rdf:RDF></metadata><defs
   id="defs16" /><sodipodi:namedview
   pagecolor="#ffffff"
   bordercolor="#666666"
   borderopacity="1"
   objecttolerance="10"
   gridtolerance="10"
   guidetolerance="10"
   inkscape:pageopacity="0"
   inkscape:pageshadow="2"
   inkscape:window-width="1536"
   inkscape:window-height="793"
   id="namedview14"
   showgrid="false"
   inkscape:zoom="0.47333333"
   inkscape:cx="296.79296"
   inkscape:cy="52"
   inkscape:window-x="1912"
   inkscape:window-y="-8"
   inkscape:window-maximized="1"
   inkscape:current-layer="katman_1" />
<style
   type="text/css"
   id="style2">
	.st0{fill-rule:evenodd;clip-rule:evenodd;fill:url(#SVGID_1_);}
</style>
<linearGradient
   id="SVGID_1_"
   gradientUnits="userSpaceOnUse"
   x1="-648.48901"
   y1="6874.6123"
   x2="-646.62451"
   y2="6874.5317"
   gradientTransform="matrix(264.3549,0,0,-58.8157,171469.88,404558.72)">
	<stop
   offset="0"
   style="stop-color:#654092"
   id="stop4" />
	<stop
   offset="0.6442"
   style="stop-color:#E31D7D"
   id="stop6" />
	<stop
   offset="1"
   style="stop-color:#E5281F"
   id="stop8" />
</linearGradient>
<path
   class="st0"
   d="m 53.9,38.7 -9.4,19.7 c 7.7,1.5 15.2,3.9 22.3,7.2 z M 288.5,19.1 c -18.4,0 -33.3,14.5 -33.3,32.4 0,17.8 15,32.3 33.3,32.3 18.4,0 33.4,-14.5 33.4,-32.3 -0.1,-17.9 -15,-32.4 -33.4,-32.4 z M 126.2,5.1 c 5.9,0 11.2,3.4 13.7,8.6 l 26,54.8 25.8,-54.8 C 194.2,8.4 199.5,5 205.4,5 h 13 l -47.3,97.9 H 160.7 L 113.4,5.1 Z M 288.5,0 c 15,0 28.2,5.1 38.2,14.7 10.2,9.7 15.9,22.7 15.9,36.7 0,14 -5.7,27 -16,36.5 -10.1,9.7 -23.7,15 -38.1,15 -14.6,0 -27.9,-5.2 -38.2,-15.1 -10.1,-9.7 -15.7,-22.7 -15.7,-36.5 0,-14 5.6,-27.1 15.7,-36.7 C 260.4,5.1 273.6,0 288.5,0 Z M 390.1,5.1 442.7,67 442.6,15.4 c 0,-5.7 4.7,-10.3 10.6,-10.3 h 9.6 V 103 h -4.3 c -12.3,0 -20.8,-10.9 -20.8,-10.9 l -43.1,-51 0.1,51.5 c 0,5.7 -4.7,10.3 -10.6,10.3 h -9.6 V 5.1 Z M 59.2,5.1 107.9,103 H 85.1 C 70.6,83.7 54.5,77.1 36.4,74.9 L 26.2,94.5 c -3.5,5.7 -8.5,8.6 -14.4,8.6 H 0 L 48.6,5.2 h 10.6 z"
   id="path11"
   inkscape:connector-curvature="0"
   style="clip-rule:evenodd;fill:url(#SVGID_1_);fill-rule:evenodd" />
</svg>