<?xml version="1.0" encoding="UTF-8" standalone="no"?>
<svg
   xmlns:dc="http://purl.org/dc/elements/1.1/"
   xmlns:cc="http://creativecommons.org/ns#"
   xmlns:rdf="http://www.w3.org/1999/02/22-rdf-syntax-ns#"
   xmlns:svg="http://www.w3.org/2000/svg"
   xmlns="http://www.w3.org/2000/svg"
   xmlns:sodipodi="http://sodipodi.sourceforge.net/DTD/sodipodi-0.dtd"
   xmlns:inkscape="http://www.inkscape.org/namespaces/inkscape"
   viewBox="0 0 393.55614 70.034421"
   version="1.1"
   id="svg26"
   sodipodi:docname="cafemimi.svg"
   inkscape:version="0.92.4 (5da689c313, 2019-01-14)"
   width="393.55615"
   height="70.034424">
  <metadata
     id="metadata30">
    <rdf:RDF>
      <cc:Work
         rdf:about="">
        <dc:format>image/svg+xml</dc:format>
        <dc:type
           rdf:resource="http://purl.org/dc/dcmitype/StillImage" />
      </cc:Work>
    </rdf:RDF>
  </metadata>
  <sodipodi:namedview
     pagecolor="#ffffff"
     bordercolor="#666666"
     borderopacity="1"
     objecttolerance="10"
     gridtolerance="10"
     guidetolerance="10"
     inkscape:pageopacity="0"
     inkscape:pageshadow="2"
     inkscape:window-width="1536"
     inkscape:window-height="793"
     id="namedview28"
     showgrid="false"
     inkscape:zoom="1.8913899"
     inkscape:cx="178.96939"
     inkscape:cy="40.716312"
     inkscape:window-x="1912"
     inkscape:window-y="-8"
     inkscape:window-maximized="1"
     inkscape:current-layer="svg26" />
  <defs
     id="defs4">
    <style
       id="style2">.cls-1{fill:#1d1d1b;}</style>
  </defs>
  <title
     id="title6">Ресурс 4</title>
  <g
     id="Слой_2"
     data-name="Слой 2"
     transform="matrix(0.9265592,0,0,0.83592322,3.439313e-5,0.01233525)"
     style="stroke-width:1.13626659">
    <g
       id="Layer_1"
       data-name="Layer 1"
       style="stroke-width:1.13626659">
      <path
         class="cls-1"
         d="m 209.67,35.54 h 15.55 v 7 a 21.72,21.72 0 0 1 5.68,-5.89 q 3.32,-2.32 9.11,-2.32 a 17.54,17.54 0 0 1 8.36,1.94 16.89,16.89 0 0 1 6.44,6.92 26.9,26.9 0 0 1 6.32,-6 17.11,17.11 0 0 1 10,-2.71 22.61,22.61 0 0 1 6.51,0.92 12.75,12.75 0 0 1 5.31,3.14 15.79,15.79 0 0 1 3.6,5.77 25.14,25.14 0 0 1 1.34,8.76 V 82.86 H 272.32 V 56.72 a 22,22 0 0 0 -0.26,-3.3 8.33,8.33 0 0 0 -1.05,-3 6.75,6.75 0 0 0 -2.16,-2.16 6.64,6.64 0 0 0 -3.57,-0.86 9.88,9.88 0 0 0 -2.68,0.43 7.87,7.87 0 0 0 -2.9,1.57 8.45,8.45 0 0 0 -2.26,3.18 13.87,13.87 0 0 0 -0.89,5.41 V 82.86 H 241 V 56.72 a 20.75,20.75 0 0 0 -0.26,-3.3 8.14,8.14 0 0 0 -1,-3 6.75,6.75 0 0 0 -2.16,-2.16 6.64,6.64 0 0 0 -3.57,-0.86 9.88,9.88 0 0 0 -2.68,0.43 7.83,7.83 0 0 0 -2.89,1.57 8.36,8.36 0 0 0 -2.27,3.18 13.87,13.87 0 0 0 -0.89,5.41 v 24.87 h -15.61 z"
         id="path8"
         inkscape:connector-curvature="0"
         style="fill:#1d1d1b;stroke-width:1.13626659" />
      <path
         class="cls-1"
         d="m 304,27 a 8.64,8.64 0 0 1 -3.62,-0.76 9.73,9.73 0 0 1 -2.91,-2 9.61,9.61 0 0 1 -2,-2.91 9,9 0 0 1 0,-7.24 9.65,9.65 0 0 1 2,-2.92 9.92,9.92 0 0 1 2.91,-2 9.11,9.11 0 0 1 7.24,0 9.63,9.63 0 0 1 4.92,4.92 9.11,9.11 0 0 1 0,7.24 10,10 0 0 1 -2,2.91 9.78,9.78 0 0 1 -2.92,2 A 8.61,8.61 0 0 1 304,27 m -7.88,8.53 h 15.55 v 47.33 h -15.56 z"
         id="path10"
         inkscape:connector-curvature="0"
         style="fill:#1d1d1b;stroke-width:1.13626659" />
      <path
         class="cls-1"
         d="M 320.49,35.54 H 336 v 7 a 21.82,21.82 0 0 1 5.68,-5.88 q 3.31,-2.32 9.11,-2.32 a 17.57,17.57 0 0 1 8.36,1.94 16.81,16.81 0 0 1 6.43,6.92 26.63,26.63 0 0 1 6.34,-6 17,17 0 0 1 10,-2.71 22.69,22.69 0 0 1 6.5,0.92 12.75,12.75 0 0 1 5.31,3.14 15.66,15.66 0 0 1 3.6,5.77 25.14,25.14 0 0 1 1.34,8.76 V 82.86 H 383.15 V 56.72 a 20.78,20.78 0 0 0 -0.27,-3.3 8,8 0 0 0 -1.05,-3 6.18,6.18 0 0 0 -5.74,-3 9.93,9.93 0 0 0 -2.67,0.43 7.9,7.9 0 0 0 -2.89,1.57 8.36,8.36 0 0 0 -2.27,3.18 13.87,13.87 0 0 0 -0.89,5.41 V 82.86 H 351.81 V 56.72 a 20.75,20.75 0 0 0 -0.26,-3.3 8.33,8.33 0 0 0 -1.05,-3 6.75,6.75 0 0 0 -2.16,-2.16 6.64,6.64 0 0 0 -3.57,-0.86 9.82,9.82 0 0 0 -2.68,0.43 7.94,7.94 0 0 0 -2.9,1.57 8.57,8.57 0 0 0 -2.26,3.18 A 13.87,13.87 0 0 0 336,58 v 24.86 h -15.51 z"
         id="path12"
         inkscape:connector-curvature="0"
         style="fill:#1d1d1b;stroke-width:1.13626659" />
      <path
         class="cls-1"
         d="m 415.41,28.79 a 8.72,8.72 0 0 1 -3.62,-0.75 9.66,9.66 0 0 1 -2.91,-2 9.48,9.48 0 0 1 -2,-2.92 9,9 0 0 1 0,-7.24 9.69,9.69 0 0 1 4.91,-4.88 9,9 0 0 1 7.21,0 9.65,9.65 0 0 1 3,2 10,10 0 0 1 2,2.91 9.11,9.11 0 0 1 0,7.24 10,10 0 0 1 -2,2.85 9.84,9.84 0 0 1 -3,2 8.79,8.79 0 0 1 -3.62,0.75 m -7.89,8.54 h 15.56 L 423,82.75 407.44,82.68 Z"
         id="path14"
         inkscape:connector-curvature="0"
         style="fill:#1d1d1b;stroke-width:1.13626659" />
      <path
         class="cls-1"
         d="m 33.06,82.65 a 35.61,35.61 0 0 1 -8,0.86 26.86,26.86 0 0 1 -10.69,-2 23.07,23.07 0 0 1 -7.83,-5.41 23.34,23.34 0 0 1 -4.87,-7.88 27.6,27.6 0 0 1 0,-18.91 24.6,24.6 0 0 1 4.92,-8.16 24.5,24.5 0 0 1 8.16,-5.78 27.55,27.55 0 0 1 11.39,-2.21 37.36,37.36 0 0 1 6.81,0.65 24,24 0 0 1 6,1.86 v 13.92 a 15.65,15.65 0 0 0 -4.7,-2.11 20.61,20.61 0 0 0 -5.89,-0.91 13.25,13.25 0 0 0 -8.86,3.12 10.68,10.68 0 0 0 -3.67,8.6 13.05,13.05 0 0 0 0.92,4.71 11.38,11.38 0 0 0 2.48,4 11.69,11.69 0 0 0 3.94,2.63 13.63,13.63 0 0 0 5.24,1 18.07,18.07 0 0 0 5.95,-1 A 13.36,13.36 0 0 0 39,67 v 13.92 a 41.64,41.64 0 0 1 -5.94,1.73"
         id="path16"
         inkscape:connector-curvature="0"
         style="fill:#1d1d1b;stroke-width:1.13626659" />
      <path
         class="cls-1"
         d="m 85.78,77.14 a 23.21,23.21 0 0 1 -6.8,4.7 22.48,22.48 0 0 1 -9.41,1.78 22.46,22.46 0 0 1 -9.29,-1.84 20,20 0 0 1 -7,-5.07 22.09,22.09 0 0 1 -4.38,-7.78 31.25,31.25 0 0 1 -1.48,-9.93 31.24,31.24 0 0 1 1.63,-10.32 24.27,24.27 0 0 1 4.65,-8.16 21.11,21.11 0 0 1 7.39,-5.4 24,24 0 0 1 9.91,-1.95 19.41,19.41 0 0 1 8.92,2 14.64,14.64 0 0 1 5.88,5 V 34.68 H 101 V 82 H 85.78 Z M 74.87,71.52 a 11.11,11.11 0 0 0 4.85,-1 10.8,10.8 0 0 0 3.6,-2.75 12,12 0 0 0 2.24,-3.92 14.17,14.17 0 0 0 0.76,-4.68 13.18,13.18 0 0 0 -3.27,-8.82 11.13,11.13 0 0 0 -3.76,-2.75 12,12 0 0 0 -5,-1 10.93,10.93 0 0 0 -8.13,3.28 12,12 0 0 0 -3.16,8.73 15.11,15.11 0 0 0 0.81,5 12.57,12.57 0 0 0 2.35,4.14 10.8,10.8 0 0 0 3.7,2.8 11.75,11.75 0 0 0 5,1"
         id="path18"
         inkscape:connector-curvature="0"
         style="fill:#1d1d1b;stroke-width:1.13626659" />
      <path
         class="cls-1"
         d="m 114.84,46.13 h -6.38 V 34.68 h 6.38 V 22.8 a 61.33,61.33 0 0 1 0.65,-9.35 18.24,18.24 0 0 1 2.62,-7.18 12.56,12.56 0 0 1 5.55,-4.65 A 23,23 0 0 1 133,0 a 46.21,46.21 0 0 1 4.63,0.22 c 1.48,0.15 2.85,0.33 4.08,0.55 v 13 a 32.2,32.2 0 0 0 -4.43,-0.32 12.35,12.35 0 0 0 -2.86,0.26 4.39,4.39 0 0 0 -1.68,0.81 5.76,5.76 0 0 0 -1.13,1.23 5.24,5.24 0 0 0 -0.75,1.87 19.4,19.4 0 0 0 -0.39,3 c -0.06,1.21 -0.11,2.75 -0.11,4.6 v 9.52 h 10.7 v 11.39 h -10.7 V 82 h -15.52 z"
         id="path20"
         inkscape:connector-curvature="0"
         style="fill:#1d1d1b;stroke-width:1.13626659" />
      <path
         class="cls-1"
         d="m 192.84,72.82 a 27.52,27.52 0 0 1 -9.61,8.18 30.65,30.65 0 0 1 -13.72,2.75 27.69,27.69 0 0 1 -9.24,-1.57 22,22 0 0 1 -13.34,-12.42 27.49,27.49 0 0 1 -2.05,-11.08 28.56,28.56 0 0 1 1.78,-10.21 24,24 0 0 1 5.08,-8.15 23.29,23.29 0 0 1 7.83,-5.4 25.16,25.16 0 0 1 10.05,-1.92 28,28 0 0 1 9.88,1.68 21.49,21.49 0 0 1 7.67,4.8 21.77,21.77 0 0 1 5,7.73 28.91,28.91 0 0 1 1.78,10.53 v 1.79 c 0,0.75 0,1.6 -0.1,2.54 h -34.17 a 10.64,10.64 0 0 0 3.34,7.5 11.31,11.31 0 0 0 8.11,3 q 7.13,0 11.77,-6.27 z M 174.91,5.4 l 12.1,9 -18.58,14.66 -8.75,-5.94 z m 3.78,47.54 a 9,9 0 0 0 -0.65,-3.35 9.29,9.29 0 0 0 -4.7,-5 8.52,8.52 0 0 0 -3.83,-0.81 9.06,9.06 0 0 0 -6.7,2.59 10.56,10.56 0 0 0 -3,6.59 z"
         id="path22"
         inkscape:connector-curvature="0"
         style="fill:#1d1d1b;stroke-width:1.13626659" />
    </g>
  </g>
</svg>
