<?xml version="1.0" encoding="UTF-8" standalone="no"?>
<svg
   xmlns:dc="http://purl.org/dc/elements/1.1/"
   xmlns:cc="http://creativecommons.org/ns#"
   xmlns:rdf="http://www.w3.org/1999/02/22-rdf-syntax-ns#"
   xmlns:svg="http://www.w3.org/2000/svg"
   xmlns="http://www.w3.org/2000/svg"
   xmlns:sodipodi="http://sodipodi.sourceforge.net/DTD/sodipodi-0.dtd"
   xmlns:inkscape="http://www.inkscape.org/namespaces/inkscape"
   width="416"
   height="188"
   viewBox="0 0 32.074598 14.495251"
   version="1.1"
   id="svg10"
   sodipodi:docname="compliment.svg"
   inkscape:version="0.92.4 (5da689c313, 2019-01-14)">
  <metadata
     id="metadata16">
    <rdf:RDF>
      <cc:Work
         rdf:about="">
        <dc:format>image/svg+xml</dc:format>
        <dc:type
           rdf:resource="http://purl.org/dc/dcmitype/StillImage" />
      </cc:Work>
    </rdf:RDF>
  </metadata>
  <defs
     id="defs14" />
  <sodipodi:namedview
     pagecolor="#ffffff"
     bordercolor="#666666"
     borderopacity="1"
     objecttolerance="10"
     gridtolerance="10"
     guidetolerance="10"
     inkscape:pageopacity="0"
     inkscape:pageshadow="2"
     inkscape:window-width="1536"
     inkscape:window-height="793"
     id="namedview12"
     showgrid="false"
     inkscape:zoom="0.13350176"
     inkscape:cx="681.81602"
     inkscape:cy="140.10585"
     inkscape:window-x="1912"
     inkscape:window-y="-8"
     inkscape:window-maximized="1"
     inkscape:current-layer="svg10" />
  <g
     id="g8"
     transform="matrix(0.18251244,0,0,0.29016671,-1.5524059,-20.719064)"
     style="clip-rule:evenodd;fill-rule:evenodd;stroke-width:4.34540176">
    <path
       d="m 73.238,71.404 h 43.403 v 41.978 H 73.238 Z"
       id="path4"
       inkscape:connector-curvature="0"
       style="fill:#20723d;stroke-width:10.17146969" />
    <path
       d="m 46.044,79.542 c 2.577,1.899 3.798,6.782 2.645,10.512 -1.424,4.408 -4.747,8.477 -8.612,11.461 -8.613,6.713 -15.462,7.053 -18.92,4.476 -1.356,-1.085 -1.085,-4.001 0.881,-3.934 0.95,0.068 0.407,1.356 2.374,2.034 5.018,1.832 12.614,-2.712 17.429,-7.323 4.815,-4.544 6.578,-12.411 2.034,-15.259 -4.543,-2.849 -12.681,-2.103 -20.548,4.747 -7.866,6.85 -13.495,21.904 -7.866,27.059 2.645,2.441 4.95,3.594 10.24,2.983 4.543,-0.542 10.511,-3.119 16.208,-8.341 1.696,-1.492 7.799,-8.681 8.884,-9.969 1.018,-1.221 1.492,-1.085 2.103,-1.153 0.61,-0.067 1.085,-0.067 0.746,0.475 -0.339,0.543 -0.475,1.085 -0.068,1.221 0.407,0.068 1.153,-0.881 3.12,-0.949 2.034,-0.068 3.458,1.288 3.458,4.272 0.068,2.034 -1.085,3.391 -1.221,4.001 -0.203,0.949 -0.474,1.153 -1.152,1.831 -0.61,0.678 -0.339,0.813 -0.95,1.288 -0.61,0.543 -0.542,1.018 -1.017,1.492 -1.289,1.085 -3.052,2.103 -4.137,2.306 -1.628,0.339 -2.441,0.136 -3.188,-0.339 -0.339,-0.203 -0.678,-0.136 -0.881,-0.339 -1.085,-1.018 -1.221,-2.78 -1.017,-4.544 0.068,-0.746 -0.068,-1.152 -0.814,-0.542 -0.204,0.203 -1.017,0.678 -1.627,1.56 -1.763,2.17 -4.815,5.153 -9.291,7.527 -6.781,3.594 -15.462,6.917 -22.379,1.288 -3.798,-3.052 -4.95,-9.087 -3.12,-15.394 1.492,-5.154 4.748,-10.986 9.223,-15.259 1.831,-1.831 3.73,-3.052 5.628,-4.408 2.238,-1.56 4.408,-3.051 6.646,-3.865 5.764,-2.103 11.256,-1.763 15.189,1.085 z m 5.765,24.82 c 0.407,-0.135 0.61,-0.203 1.356,-1.424 0.678,-1.221 1.56,-1.695 2.713,-1.424 1.221,0.203 1.492,1.355 1.492,2.102 0,0.679 -0.339,1.221 -0.339,1.764 -0.068,0.543 -0.204,0.882 -0.542,1.288 -0.407,0.34 -0.814,1.153 -2.17,2.238 -1.356,1.085 -2.373,1.695 -3.255,1.018 -0.882,-0.679 -0.814,-2.171 -0.475,-3.256 0.27,-1.085 0.745,-2.237 1.22,-2.306 z m 6.714,5.901 c -0.136,-0.204 0.135,-0.949 0.61,-1.492 0.407,-0.543 0.95,-1.221 1.356,-1.763 0.475,-0.476 0.339,-0.679 0.61,-1.018 0.271,-0.339 0.814,-0.746 1.085,-1.424 0.271,-0.746 0.339,-0.746 0.881,-1.356 0.61,-0.679 1.695,-2.17 2.17,-2.78 0.407,-0.61 1.627,-2.171 2.238,-2.78 0.61,-0.543 1.085,-0.95 1.899,-0.814 0.814,0.203 0.678,1.356 0.61,2.238 0,0.881 -0.407,3.391 0,3.594 0.407,0.203 0.949,-0.542 1.356,-0.949 0.475,-0.406 1.085,-1.628 1.967,-2.577 0.949,-0.882 1.492,-1.763 2.238,-2.576 0.813,-0.814 2.034,-1.561 2.509,-1.018 0.543,0.542 0.61,1.152 0.475,2.509 -0.068,1.356 0.135,1.764 -0.068,2.441 -0.204,0.678 -0.271,1.56 -0.204,2.103 0,0.475 0,0.813 0.135,0.813 0.136,0 0.679,-0.271 0.882,-0.678 0.136,-0.407 0.814,-0.95 1.289,-1.561 0.475,-0.678 1.696,-2.17 3.12,-2.102 1.492,0 1.628,0.949 1.831,1.424 0.203,0.475 0.61,0.949 0.949,1.56 0.407,0.679 0.678,1.492 1.424,1.56 0.813,0.068 1.424,-0.542 1.831,-1.152 0.339,-0.679 0.475,-0.407 1.017,-1.018 0.61,-0.678 0.882,-1.085 0.949,-1.627 0.068,-0.543 0.339,-1.085 0.678,-1.628 0.271,-0.542 0.542,-1.288 1.153,-2.441 0.542,-1.085 1.289,-2.645 1.695,-3.594 0.407,-1.018 0.475,-1.289 0.746,-2.035 0.339,-0.678 0.814,-1.695 1.221,-1.56 0.406,0.136 0.949,1.289 0.678,2.306 -0.203,1.018 -0.678,1.831 -0.678,2.441 0,0.543 -0.339,1.221 -0.543,1.831 -0.203,0.61 -0.203,1.018 -0.406,1.967 -0.204,1.018 -1.018,2.983 -1.018,3.594 0.068,0.543 -0.339,1.425 -0.61,3.256 -0.271,1.763 -0.271,2.034 -0.203,2.509 0,0.475 -0.271,1.153 -0.407,2.374 -0.136,1.152 -0.136,1.56 -0.271,2.237 -0.136,0.746 0.135,1.153 -0.068,1.831 -0.136,0.679 0.068,0.882 0.203,0.679 0.204,-0.271 0.271,-0.543 0.271,-0.882 0,-0.271 0.339,-1.289 0.271,-1.764 -0.068,-0.542 0.136,-1.221 0.339,-1.967 0.271,-0.678 0.339,-1.763 0.542,-2.712 0.204,-1.018 0.204,-1.899 0.881,-3.662 0.611,-1.695 1.153,-3.595 2.102,-4.408 0.883,-0.813 1.898,-0.067 2.17,0.407 0.271,0.406 0.475,0.609 0.814,1.017 0.406,0.475 0.611,1.153 1.221,1.696 0.543,0.474 0.814,1.017 1.832,0.609 0.949,-0.406 1.49,-1.152 1.898,-1.491 0.406,-0.34 0.812,-1.222 1.287,-1.764 0.477,-0.475 0.68,-0.746 0.68,-1.356 0.066,-0.542 0.203,-0.882 0.271,-1.763 0.066,-0.814 0.27,-1.899 0.541,-3.255 0.34,-1.424 1.764,-5.561 2.51,-6.917 0.814,-1.356 1.086,-1.831 1.492,-2.712 0.338,-0.813 0.881,-1.56 1.561,-2.509 0.744,-0.949 0.812,-1.627 2.033,-2.916 1.221,-1.288 2.373,-2.441 3.322,-2.374 0.951,0.068 1.154,0.271 0.951,1.899 -0.205,1.56 -1.154,3.662 -1.426,4.205 -0.27,0.475 -0.135,0.882 -0.746,1.966 -0.609,1.018 -0.609,1.289 -0.881,1.628 -0.272,0.339 0.068,0.746 -0.338,1.356 -0.34,0.61 -1.018,1.695 -1.492,2.238 -0.475,0.61 -0.408,1.356 -0.883,2.035 -0.541,0.746 -1.695,2.916 -2.17,3.594 -0.475,0.679 -0.746,1.764 -1.424,2.577 -0.609,0.813 -0.881,0.813 -0.814,1.56 0.068,0.746 0.137,2.713 1.289,3.595 1.221,0.881 2.916,1.017 4.068,-0.068 1.154,-1.152 1.832,-1.356 2.307,-2.17 0.475,-0.814 0.814,-1.085 1.221,-1.492 0.406,-0.406 0.609,-1.288 1.221,-1.898 0.543,-0.61 0.678,-0.678 1.084,-1.356 0.34,-0.678 1.492,-0.746 2.035,-0.067 0.543,0.678 0.609,2.034 0.746,3.119 0.068,1.085 0.406,2.238 0.949,2.577 0.543,0.339 1.018,0.407 1.832,-0.204 0.812,-0.609 0.609,-0.881 1.084,-1.355 0.543,-0.407 0.746,-0.949 1.967,-2.441 1.152,-1.492 0.814,-1.221 1.764,-2.374 0.949,-1.221 1.83,-2.577 2.779,-2.712 0.949,-0.136 1.086,0.339 0.949,1.221 -0.203,0.881 0.068,1.221 -0.203,1.695 -0.203,0.407 -0.203,1.356 -0.406,1.831 -0.203,0.407 -0.203,0.61 0.068,0.747 0.338,0.135 0.541,-0.068 1.627,-1.493 1.086,-1.424 2.645,-3.458 3.594,-4.476 0.949,-0.95 1.967,-1.153 2.238,-0.61 0.203,0.61 0.068,2.102 -0.203,2.984 -0.203,0.882 -0.068,1.017 -0.271,1.966 -0.203,0.95 -0.475,1.628 -0.34,1.967 0.203,0.406 0.271,0.609 0.814,-0.271 0.611,-0.95 0.678,-0.95 1.355,-1.628 0.68,-0.746 0.951,-1.492 2.172,-1.627 1.152,-0.136 1.152,0.339 1.219,0.814 0.137,0.475 0.271,1.085 0.543,1.221 0.271,0.203 0.34,0.61 0.543,1.017 0.135,0.476 0.475,1.085 0.881,1.222 0.408,0.135 0.814,0.203 1.221,-0.611 0.408,-0.745 0.611,-0.745 0.814,-0.813 0.203,-1.967 0.678,-2.441 1.152,-3.729 0.543,-1.221 0.746,-1.831 1.424,-2.645 0.68,-0.746 1.086,-1.492 1.697,-1.899 0.609,-0.475 0.541,-0.813 1.219,-1.085 0.68,-0.271 1.426,-0.407 1.764,0.339 0.408,0.679 0.408,1.899 0.271,2.238 -0.135,0.339 -0.475,0.678 -0.475,1.017 0,0.339 -0.338,0.814 -1.018,1.763 -0.678,0.949 -1.83,2.441 -2.238,2.78 -0.406,0.407 -0.949,1.153 -1.152,1.289 0,0.949 0.068,1.898 0.949,2.441 0.814,0.542 2.238,-0.068 2.713,-0.61 0.543,-0.543 1.764,-1.289 2.238,-1.764 0.406,-0.475 0.543,-1.017 1.289,-2.441 0.812,-1.492 1.287,-2.034 2.033,-3.052 0.68,-0.949 0.746,-1.627 1.357,-2.17 0.609,-0.542 1.084,-0.882 1.559,-0.813 0.408,0.135 0.814,1.084 0.68,2.17 -0.205,1.085 -0.271,1.56 -0.477,2.17 -0.203,0.542 -0.135,0.814 -0.338,1.695 -0.271,0.814 -0.814,2.374 -0.678,2.646 0.066,0.271 0.203,0.542 0.541,-0.068 0.34,-0.61 0.543,-1.085 1.154,-1.967 0.543,-0.949 1.627,-2.509 2.305,-3.255 0.678,-0.678 1.629,-0.542 1.898,-0.068 0.271,0.475 0.68,1.764 0.814,2.646 0.137,0.813 0.475,1.288 0.949,1.492 0.474,0.204 0.611,-0.204 0.949,-0.814 0.34,-0.61 0.883,-1.221 1.561,-2.509 0.678,-1.288 1.627,-3.594 2.035,-4.882 0.475,-1.289 1.016,-2.849 1.084,-3.255 0.068,-0.475 0.137,-0.475 -0.609,-0.407 -0.814,0.067 -3.393,0.339 -5.629,0.136 -2.238,-0.271 -4.477,-1.153 -4.342,-2.781 0.068,-1.56 0.951,-2.102 1.426,-2.17 0.475,-0.067 0.678,0.136 0.475,0.475 -0.203,0.339 -0.814,0.61 -0.678,1.085 0.203,0.475 0.475,0.95 2.508,1.017 2.104,0.136 5.154,0 7.053,-0.203 0.406,0 0.678,-0.136 0.883,-0.882 0.541,-2.238 0.949,-4.34 1.152,-5.425 0.271,-1.153 0.949,-2.035 1.221,-1.899 0.271,0.135 0,0.407 -0.137,1.627 -0.203,1.153 -0.746,5.154 -0.678,5.561 0,0.407 0,0.61 0.678,0.543 0.68,0 1.357,-0.068 1.695,-0.136 0.34,0 0.34,0.136 0.34,0.407 0,0.339 -0.068,1.153 -0.068,1.356 0,0.271 -1.152,0.475 -1.559,0.542 -0.475,0.136 -1.492,0.339 -1.629,0.475 -0.135,0.204 -0.27,0.746 -0.338,1.356 -0.068,0.542 -0.746,4.205 -0.949,5.9 -0.205,1.696 -0.543,5.222 -0.475,5.697 0.066,0.475 0.203,0.881 0.609,0.475 0.475,-0.407 1.086,-1.696 1.695,-2.441 0.543,-0.814 0.883,-1.424 0.949,-1.153 0.137,0.203 0,0.949 0,1.424 0.068,0.406 0.068,0.881 -0.203,1.288 a 12.089,12.089 0 0 0 -0.949,1.56 c -0.34,0.61 -0.746,0.882 -1.018,1.492 -0.203,0.543 -1.084,1.967 -1.492,2.373 -0.406,0.407 -0.475,0 -0.746,-0.135 -0.338,-0.204 -0.881,-0.407 -0.881,-1.221 0,-0.746 0.068,-5.697 0.34,-6.85 0.271,-1.153 0.338,-1.628 0.203,-1.695 -0.203,-0.068 -0.408,0.542 -0.883,1.492 -0.475,0.95 -1.152,2.035 -1.695,2.712 -0.475,0.679 -0.475,0.814 -0.949,1.628 -0.543,0.813 -1.084,1.695 -1.967,1.763 -0.881,0 -1.355,-1.56 -1.559,-2.102 -0.271,-0.543 -0.814,-1.153 -0.883,-1.424 0,-0.271 -0.27,-0.678 -0.475,-0.61 -0.203,0.068 -0.881,0.746 -1.287,1.424 -0.408,0.746 -1.018,1.492 -1.154,1.56 -0.066,0.136 -0.066,0.339 -0.678,1.424 -0.609,1.018 -0.881,1.56 -1.287,2.034 -0.477,0.476 -0.477,1.086 -0.951,1.492 -0.475,0.34 -1.287,0.407 -1.287,-0.271 -0.068,-0.745 -0.205,-1.763 0.066,-2.441 0.271,-0.609 0.068,-1.56 0.543,-2.441 0.406,-0.813 0.34,-1.627 0.34,-2.169 0.066,-0.61 0.406,-0.95 0.135,-1.153 -0.203,-0.204 -0.881,-0.136 -1.084,0.542 -0.271,0.678 -0.68,1.017 -1.289,2.035 -0.678,1.085 -0.814,1.288 -1.492,1.898 -0.609,0.61 -1.492,1.424 -2.035,1.967 -0.541,0.542 -1.898,1.424 -3.254,1.356 -1.357,-0.136 -2.17,-1.153 -2.51,-2.17 -0.338,-0.95 -0.338,-1.425 -0.406,-1.492 -0.137,-0.068 -0.475,1.018 -0.883,1.492 -0.406,0.475 -1.355,1.221 -2.508,0.746 -1.154,-0.476 -1.764,-1.764 -2.238,-2.441 -0.475,-0.679 -1.152,-0.882 -1.627,-0.679 -0.477,0.271 -0.814,0.61 -1.426,1.424 -0.609,0.814 -0.746,0.95 -1.016,1.492 -0.205,0.61 -0.408,0.746 -0.814,1.289 -0.406,0.475 -0.609,1.356 -1.152,1.898 -0.611,0.61 -0.949,0.813 -1.424,0.679 -0.543,-0.204 -0.271,-1.357 -0.068,-2.51 0.135,-1.085 0.609,-2.713 0.678,-3.662 0.069,-0.949 0.406,-1.898 0.271,-2.306 -0.203,-0.475 -0.814,-0.407 -1.355,0.339 -0.477,0.679 -0.68,0.746 -1.154,1.356 -0.475,0.543 -0.678,1.085 -1.424,2.238 -0.814,1.085 -1.289,1.628 -1.559,2.237 -0.271,0.543 -0.611,0.746 -0.883,1.221 -0.203,0.407 -0.543,1.221 -1.018,1.356 -0.475,0.135 -1.084,-0.136 -1.018,-1.221 0.068,-1.017 0.408,-1.966 0.746,-3.526 0.34,-1.56 0.477,-2.306 0.137,-2.509 -0.34,-0.271 -0.949,0.407 -1.627,1.424 -0.68,1.018 -1.289,1.967 -2.035,2.78 -0.678,0.882 -1.832,1.967 -2.645,2.374 -0.746,0.407 -2.17,-0.339 -2.713,-1.221 -0.475,-0.882 -0.475,-1.425 -0.814,-1.695 -0.338,-0.271 -0.609,-0.882 -0.746,-1.289 -0.066,-0.407 -0.678,-0.678 -1.152,-0.067 -0.406,0.61 -0.814,1.152 -1.289,1.627 -0.406,0.476 -0.609,0.476 -0.609,0.746 0,0.34 -0.203,0.407 -0.746,0.814 -0.543,0.339 -1.018,1.017 -1.221,0.949 -0.271,0 -0.34,-0.271 -0.814,0.203 -0.474,0.474 -1.83,1.628 -3.525,1.492 -1.695,-0.203 -2.848,-1.221 -3.119,-2.238 -0.271,-1.085 -0.543,-2.034 -0.746,-2.237 -0.203,-0.136 -0.475,0.136 -0.949,0.678 -0.543,0.543 -0.883,1.153 -1.629,1.764 -0.746,0.611 -1.695,1.627 -3.051,1.627 -1.357,0 -2.51,-1.288 -2.916,-1.763 -0.475,-0.475 -1.018,-0.949 -1.357,-0.475 -0.406,0.542 -0.475,1.152 -0.881,2.306 -0.407,1.152 -0.271,1.831 -0.61,2.577 -0.407,0.745 -0.204,1.085 -0.34,1.898 -0.135,0.813 -0.61,2.238 -0.746,2.916 -0.136,0.678 -0.339,0.678 -0.271,1.695 0.068,1.017 -0.204,1.492 -0.407,2.577 -0.204,1.085 -0.204,1.085 -0.204,1.695 0,0.61 -0.136,1.085 -0.339,1.492 -0.136,0.406 -0.068,1.288 -0.611,1.424 -0.61,0.136 -1.356,-0.068 -1.627,-1.424 -0.339,-1.425 -0.679,-3.866 -0.679,-5.765 0,-1.831 0,-3.188 -0.067,-4.137 -0.136,-0.949 0.203,-1.967 0.271,-3.459 0.136,-1.56 0.204,-3.391 -0.068,-3.525 -0.339,-0.068 -0.949,0.542 -1.22,1.221 -0.271,0.678 -1.153,1.763 -2.103,2.237 -0.949,0.475 -2.374,0.339 -3.391,-0.882 -1.017,-1.288 -2.373,-2.509 -3.255,-2.373 -0.813,0.203 -1.967,1.356 -2.509,2.237 -0.543,0.882 -0.61,1.289 -1.153,1.831 -0.542,0.475 -0.813,1.153 -1.288,1.899 -0.543,0.746 -1.356,1.627 -1.967,1.356 -0.678,-0.271 -0.542,-1.289 -0.271,-3.323 0.339,-2.034 0.475,-2.78 0.475,-3.662 0,-0.813 0.339,-1.764 -0.068,-1.967 -0.475,-0.271 -1.153,-0.067 -1.627,0.61 -0.475,0.61 -0.746,0.949 -1.153,1.356 -0.475,0.339 -0.611,0.949 -1.695,2.237 -1.018,1.289 -1.153,1.357 -1.56,2.103 -0.407,0.746 -0.542,0.95 -0.814,1.153 -0.203,0.203 -0.475,1.017 -0.949,1.492 -0.542,0.406 -1.695,0.746 -1.695,-0.271 -0.068,-1.085 0.136,-1.764 0.271,-2.645 0.136,-0.882 0.271,-1.425 0.271,-2.035 0.068,-0.61 0.339,-1.424 0.271,-1.898 -0.067,-0.407 -0.271,-0.543 -0.61,-0.475 -0.339,0.067 -0.881,0.542 -1.424,1.424 -0.61,0.813 -0.61,0.61 -1.018,1.492 -0.407,0.813 -0.407,1.018 -1.017,1.492 -0.679,0.475 -2.035,1.695 -2.577,2.17 -0.535,0.471 -0.942,0.742 -1.077,0.471 z m 52.692,-16.819 c -0.271,-0.136 0,-1.017 0.271,-1.763 0.34,-0.746 0.746,-1.492 0.746,-1.899 0.068,-0.407 0.746,-1.424 1.084,-2.238 0.408,-0.814 0.271,-1.289 0.746,-2.035 0.477,-0.746 1.357,-2.102 1.764,-2.577 0.408,-0.474 1.018,-0.881 0.883,-0.271 -0.068,0.61 -0.068,1.424 -0.611,2.374 -0.543,0.95 -0.609,1.424 -0.949,2.306 -0.271,0.882 -0.814,1.627 -1.695,3.255 -0.95,1.628 -1.696,3.187 -2.239,2.848 z m 13.428,-5.221 c -0.949,-0.61 -0.203,-2.645 0.543,-3.391 0.746,-0.746 1.355,-1.085 1.559,-1.424 0.203,-0.339 0.746,-0.814 1.561,-1.018 0.814,-0.203 0.949,0.271 0.678,1.153 -0.271,0.882 -0.746,1.967 -0.881,2.374 -0.068,0.407 -0.34,0.881 -0.883,1.356 -0.611,0.475 -1.628,1.56 -2.577,0.95 z"
       id="path6"
       inkscape:connector-curvature="0"
       style="fill:#c6aa6a;stroke-width:10.17146969" />
  </g>
</svg>
