<?xml version="1.0" encoding="UTF-8" standalone="no"?>
<!-- Generator: Adobe Illustrator 26.0.3, SVG Export Plug-In . SVG Version: 6.00 Build 0)  -->

<svg
   xmlns:dc="http://purl.org/dc/elements/1.1/"
   xmlns:cc="http://creativecommons.org/ns#"
   xmlns:rdf="http://www.w3.org/1999/02/22-rdf-syntax-ns#"
   xmlns:svg="http://www.w3.org/2000/svg"
   xmlns="http://www.w3.org/2000/svg"
   xmlns:xlink="http://www.w3.org/1999/xlink"
   xmlns:sodipodi="http://sodipodi.sourceforge.net/DTD/sodipodi-0.dtd"
   xmlns:inkscape="http://www.inkscape.org/namespaces/inkscape"
   version="1.0"
   id="katman_1"
   x="0px"
   y="0px"
   viewBox="0 0 450.39999 90.799995"
   xml:space="preserve"
   sodipodi:docname="EstelProfessional.svg"
   inkscape:version="0.92.4 (5da689c313, 2019-01-14)"
   width="450.39999"
   height="90.799995"><metadata
   id="metadata21"><rdf:RDF><cc:Work
       rdf:about=""><dc:format>image/svg+xml</dc:format><dc:type
         rdf:resource="http://purl.org/dc/dcmitype/StillImage" /></cc:Work></rdf:RDF></metadata><defs
   id="defs19" /><sodipodi:namedview
   pagecolor="#ffffff"
   bordercolor="#666666"
   borderopacity="1"
   objecttolerance="10"
   gridtolerance="10"
   guidetolerance="10"
   inkscape:pageopacity="0"
   inkscape:pageshadow="2"
   inkscape:window-width="1536"
   inkscape:window-height="793"
   id="namedview17"
   showgrid="false"
   inkscape:zoom="1.8933333"
   inkscape:cx="239.6484"
   inkscape:cy="23.864187"
   inkscape:window-x="1912"
   inkscape:window-y="-8"
   inkscape:window-maximized="1"
   inkscape:current-layer="g14" />
<style
   type="text/css"
   id="style2">
	
		.st0{clip-path:url(#SVGID_00000050629470550803010360000015756084519952470913_);fill-rule:evenodd;clip-rule:evenodd;fill:#1170B7;}
</style>
<g
   id="g14"
   transform="matrix(0.86631601,0,0,0.79641062,-29.24823,-132.23304)"
   style="stroke-width:1.20390809">
	<g
   id="g12"
   style="stroke-width:1.15452671"
   transform="matrix(1.0203044,0,0,1.0657344,-8.4284024,-17.754855)">
		<defs
   id="defs5">
			<rect
   id="SVGID_1_"
   x="74"
   y="179.3"
   width="452"
   height="91.300003" />
		</defs>
		<clipPath
   id="SVGID_00000080907421490938673710000017904345247745313939_">
			<use
   xlink:href="#SVGID_1_"
   style="overflow:visible"
   id="use7"
   x="0"
   y="0"
   width="100%"
   height="100%" />
		</clipPath>
		
			<path
   style="clip-rule:evenodd;fill:#1170b7;fill-rule:evenodd;stroke-width:1.15452671"
   d="M 357.9,267.5 V 182 h 77.6 v 9.9 h -60 v 25.9 h 50.9 v 9.9 h -50.9 v 30 h 63.4 v 9.9 h -81 z m 95.2,0 V 182 h 17.6 v 75.6 l 53.7,-0.1 -4.2,9.9 z m -282.2,-7.1 c 8.4,4.3 23,9.7 43.6,9.7 28.9,0 40.6,-14.2 42.3,-26.2 3.2,-22.9 -25.1,-26.5 -44,-28.9 -9.6,-1.2 -28.2,-1.9 -28.3,-13.4 -0.1,-9.4 12.6,-12.1 24.5,-12.1 14.9,0 26,4 32.1,6.9 l 6.5,-9.8 c -8.2,-3.1 -21.9,-7.2 -38.4,-7.3 -10.3,-0.1 -17.7,1.6 -22.3,3.5 -22.2,9 -23.2,34 -1.7,42.7 6.9,2.8 15.3,4.1 23.3,5.2 17.6,2.4 36,4 32.7,17.3 -2.4,9.6 -17,11.6 -26.7,11.6 -22,0 -37.5,-8.6 -43.6,-12.8 z M 74,267.5 V 182 h 83.2 v 9.9 H 91.6 v 25.9 h 56.5 v 9.9 H 91.6 v 30 h 65.6 v 9.9 H 74 Z m 218.1,0 V 191.9 H 258.2 V 182 h 85.5 v 9.9 h -33.9 v 75.6 z m 0,0"
   clip-path="url(#SVGID_00000080907421490938673710000017904345247745313939_)"
   id="path10"
   inkscape:connector-curvature="0" />
	</g>
</g>
</svg>