<svg xmlns="http://www.w3.org/2000/svg" xmlns:xlink="http://www.w3.org/1999/xlink" viewBox="0 0 501 346.29"><defs><style>.cls-1{fill:none;}.cls-2{fill:#fff;}.cls-3{fill:#001689;}.cls-4{clip-path:url(#clip-path);}.cls-5{fill:url(#Unbenannter_Verlauf_3);}.cls-6{fill:#04baee;}.cls-7{fill:#91d4f5;}.cls-8{fill:#eaf6fd;}.cls-9{fill:#006c3b;}.cls-10{fill:#ffec00;}.cls-11{fill:#76b72a;}.cls-12{fill:#e2231a;}</style><clipPath id="clip-path"><path class="cls-1" d="M82.78,100.85c13.3-2.12,28.94-4.69,47.27-7.82,19.6-3.31,42.75,4.69,65.82,14.33,14-5.31,30.46-11.23,36.34-11.72.31,0,.58,0,.82,0a10.9,10.9,0,0,1,1.44.13.75.75,0,0,1,.22,0A12.92,12.92,0,0,1,236,96l.27.08c.44.12.87.27,1.3.43l.22.08c.45.17.89.36,1.32.57h0c.47.22.94.46,1.4.71l.12.06c.47.25.95.53,1.41.81h0c4,2.4,7.89,5.5,12.12,6.93a18.9,18.9,0,0,0,3.1.7l.65.05.33,0h1.07a22.76,22.76,0,0,0,6.54-1.82c3.15-1.42,7.42-3.39,11.93-5.3a98,98,0,0,1,10.45-4.07c.95-.3,1.89-.57,2.85-.82.42-.11.84-.24,1.25-.34l0,0A31.58,31.58,0,0,1,308.1,94c10.18,2.83,28.8,15.9,39.8,23.49,21.1-4.6,42-8.56,60-9.1a121.09,121.09,0,0,1,18.9,1C386.22,64.75,322.35,37.72,250.64,37.72c-67,0-127.13,23.62-167.86,63.13"/></clipPath><radialGradient id="Unbenannter_Verlauf_3" cx="-65.56" cy="657.75" r="5.39" gradientTransform="matrix(37.98, 0, 0, -19.44, 2744.5, 12899)" gradientUnits="userSpaceOnUse"><stop offset="0" stop-color="#dff1fc"/><stop offset="0.31" stop-color="#ddf0fc"/><stop offset="0.42" stop-color="#d6edfb"/><stop offset="0.5" stop-color="#cbe8fa"/><stop offset="0.51" stop-color="#c8e7fa"/><stop offset="1" stop-color="#81cff4"/></radialGradient></defs><title>Hochland-Logo</title><g id="Ebene_2" data-name="Ebene 2"><g id="Ebene_1-2" data-name="Ebene 1"><path class="cls-2" d="M237,342.17c-5.74-1.82-15.76-4.2-19.75-5-9.23-1.89-42.84-8.06-87.49-8.2l-12,0c-18.33,0-29.25.16-36.49.26H80.13c-5.67.08-10.73.15-16.69.15h-3.2c-21.15-.06-34.65-7.61-42.25-13.94A49.71,49.71,0,0,1,0,276.19l.17-33.94L0,221.3a49.7,49.7,0,0,1,18-39.22c.88-.74,1.84-1.47,2.85-2.19C35.54,77.17,133.83,0,250.47,0c116,0,214.21,76.69,229.47,178.75a49.9,49.9,0,0,1,20.83,40.7l.08,9.73h.05l.08,5,0,8,.06,10h-.1L500.77,278c-.24,30.95-25.1,52.56-60.44,52.56-8,0-13.91-.15-20.69-.29h-.54c-10.8-.23-23.63-.5-48.54-.56H369c-44,0-77,5.87-86.15,7.66-3.7.73-14,3.12-19.81,4.9l-13,4Z"/><path class="cls-3" d="M60.24,173.11h3.2c5.93,0,11,.07,16.64.15h1.12c7.25.11,18.19.27,36.56.27l12,0c45-.13,79.11-6.38,88.48-8.3,4.06-.84,14.32-3.27,20.26-5.16L250,156.4,261.54,160c6,1.84,16.41,4.25,20.3,5,9.21,1.82,42.79,7.76,87.14,7.76h1.59c25.22-.07,38.12-.34,48.48-.56h.19c7-.14,13-.27,20.83-.29h.26c13.72,0,25.69,3.51,35,9.67C461.61,82,366.18,5,250.47,5,134.32,5,38.6,82.63,25.47,182.7c7.37-4.88,18.62-9.55,34.77-9.59"/><path class="cls-2" d="M60.24,173.11h3.2c5.93,0,11,.07,16.64.15h1.12c7.25.11,18.19.27,36.56.27l12,0c45-.13,79.11-6.38,88.48-8.3,4.06-.84,14.32-3.27,20.26-5.16L250,156.4,261.54,160c6,1.84,16.41,4.25,20.3,5,9.21,1.82,42.79,7.76,87.14,7.76h1.59c25.22-.07,38.12-.34,48.48-.56h.19c7-.14,13-.27,20.83-.29h.26c11.57,0,21.9,2.5,30.43,7C446.44,91.5,357,32.68,250.64,32.68,143.81,32.68,54,92,30.18,179.94c7.19-3.75,17-6.8,30.07-6.83"/><g class="cls-4"><rect class="cls-5" x="82.78" y="37.72" width="344.03" height="79.8"/></g><path class="cls-2" d="M308.1,94a31.28,31.28,0,0,0-15.66.09l-.14,0c-8.55,2.23-20.06,7.73-26.64,10.69a21.64,21.64,0,0,1-6.37,1.65,14,14,0,0,1-5-.76,41.81,41.81,0,0,1-9.22-5.08c-3.86-2.53-7.71-5-12-5-5-.09-22.47,6.18-37.16,11.76,7.83,3.27,15.65,6.73,23.32,10,6.79,2.9,13.45,5.64,19.89,8a125,125,0,0,0,22.84,6.27l.6.1a50.9,50.9,0,0,0,13.67.36c20.83-2.58,46.36-9,71.68-14.56-11-7.59-29.62-20.65-39.8-23.48"/><path class="cls-6" d="M219.21,117.37c2.66-4.19,4.82-10.47,6.33-14,4.31-10.11,14-4.1,19.48-2.72-3.86-2.53-7.71-4.95-12-5-5-.09-22.47,6.18-37.16,11.76,7.83,3.27,15.65,6.73,23.32,10"/><path class="cls-7" d="M265.65,104.83l.3-.11-.16.07c-2.17,1-.47,7,.47,11.43a24.34,24.34,0,0,1,.53,2.93c1.33-3,4.81-7.28,10.81-10.56,7.86-4.3,12-7,13.18-10.33l1.34-3.49.29-.66c-8.55,2.23-20.17,7.76-26.75,10.72"/><path class="cls-8" d="M262.19,131.66a69.12,69.12,0,0,1,4.59-12.48c-.38-4.07-3.71-13.17-1-14.38l.16-.07a22.44,22.44,0,0,1-6.66,1.76,13.87,13.87,0,0,1-5-.76c-.46,2.38-2.75,7-4.11,9.78-2.31,4.75-7.09,7.16-11,9.84a124.74,124.74,0,0,0,23.09,6.31"/><path class="cls-9" d="M461.67,166.12a170.08,170.08,0,0,0-9.49-20.91v0c-.06-.1-.12-.23-.2-.38a2.25,2.25,0,0,1-.15-.28h0a179.22,179.22,0,0,0-25-35.11,120.45,120.45,0,0,0-18.91-1c-39.51,1.18-93.49,18.92-131.68,23.65S174.73,85.45,130.06,93c-18.34,3.13-34,5.7-47.28,7.82A181.75,181.75,0,0,0,49,145.29,170.73,170.73,0,0,0,37.9,170.91q-1.09,3.21-2.06,6.48a67.73,67.73,0,0,1,24.41-4.28h3.2c5.94,0,11,.06,16.64.15H81.2c7.25.11,18.19.27,36.56.27l12,0c45-.13,79.11-6.38,88.48-8.3,4.06-.84,14.32-3.27,20.26-5.16L250,156.4,261.53,160c6,1.84,16.41,4.25,20.31,5,9.21,1.82,42.78,7.76,87.14,7.76h1.59c25.22-.07,38.12-.34,48.48-.56h.19c7-.14,13-.27,20.82-.29h.26a68.11,68.11,0,0,1,24.78,4.39q-1.57-5.15-3.44-10.15"/><path class="cls-10" d="M451.83,144.54c-28.14-4.35-76.92-11.17-108.56-11.57-39.64-.51-49.76,10.56-69.09,10.76s-52.82-17.08-91.08-9.17c-28.91,6-92.88,9.21-134.06,10.74a170.73,170.73,0,0,0-11.15,25.62c39.22-8.62,111.59-24.16,144.55-28.83,38.78-5.5,74.72,9.1,94,8.9s27.5-8.79,67.15-8.28c35.72.46,93.1,16.11,118,23.41a169.87,169.87,0,0,0-9.83-21.58"/><path class="cls-11" d="M60.24,173.11h3.2c5.93,0,11,.07,16.64.15h1.12c7.25.11,18.19.27,36.56.27l12,0c45-.13,79.11-6.38,88.48-8.3,4.06-.84,14.32-3.27,20.26-5.16L250,156.4,261.54,160c6,1.84,16.41,4.25,20.3,5,9.21,1.82,42.79,7.76,87.14,7.76h1.59c25.22-.07,38.12-.34,48.48-.56h.19c7-.14,13-.27,20.83-.29h.26a68.17,68.17,0,0,1,24.78,4.39q-1.56-5.15-3.44-10.15c-24.94-7.31-82.31-23-118-23.41-39.64-.51-47.82,8.08-67.15,8.28s-55.26-14.4-94-8.9c-33,4.67-105.34,20.21-144.55,28.83q-1.09,3.21-2.06,6.48a67.74,67.74,0,0,1,24.41-4.28"/><path class="cls-12" d="M496,242.2l0-8h-.1l-.1-14.66c-.22-28-23-47.61-55.48-47.61h-.26c-7.84,0-13.86.15-20.82.29h-.19c-10.36.22-23.26.49-48.48.56H369c-44.36,0-77.93-5.93-87.14-7.75-3.89-.78-14.3-3.19-20.3-5L250,156.4,238.49,160c-5.94,1.88-16.19,4.32-20.26,5.16-9.37,1.91-43.44,8.17-88.48,8.3l-12,0c-18.37,0-29.31-.16-36.56-.27H80.09c-5.68-.08-10.7-.15-16.64-.15h-3.2c-19.67,0-32.1,7-39.07,12.78A44.82,44.82,0,0,0,5,221.26l.17,21L5,276.22a44.83,44.83,0,0,0,16.21,35.37c7,5.8,19.39,12.73,39.07,12.79h3.2c5.94,0,11-.06,16.64-.15H81.2c7.25-.11,18.19-.26,36.56-.26l12,0c45,.13,79.11,6.39,88.48,8.3,4.06.84,14.32,3.27,20.26,5.16l11.5,3.65,11.54-3.56c6-1.84,16.41-4.25,20.3-5,9.21-1.82,42.79-7.76,87.14-7.76h1.59c25.22.06,38.12.34,48.48.55h.19c7,.14,13,.27,20.82.3h.26c32.44,0,55.26-19.59,55.48-47.62l.15-30.7H496Z"/><path class="cls-2" d="M246.75,318c-.21-.06-19.15-5-23.09-5.75-9.58-1.92-44.56-8.18-91.49-8.18h-1.54c-25.62.08-38.61.35-49.06.56l-1.21,0c-6.49.13-12.11.24-19.23.26H61c-10.57,0-19.73-2.87-25.8-8.05a22.68,22.68,0,0,1-8-17.85l-.49-58a23.18,23.18,0,0,1,8.44-18.55c4.22-3.52,12-7.72,25.24-7.75H63.5c5.79,0,10.89.06,16.29.13l1.14,0c7.21.1,18.17.26,36.83.26l12.06,0c47-.15,82.89-6.73,92.76-8.74,4.37-.91,15.41-3.5,22.47-5.74l5.05-1.59,5.07,1.55c7.14,2.19,18.33,4.75,22.47,5.57,9.73,1.91,45,8.17,91.36,8.17h1.67c25.42-.07,38.41-.34,48.85-.55h.24c6.84-.15,12.75-.27,20.38-.29h.2c10.52,0,19.65,2.87,25.71,8.07,5.31,4.57,8,10.63,8.11,18.05l.25,35.62.23,22.14a23.17,23.17,0,0,1-5.22,15.3c-3.36,4.07-11.52,10.93-28.45,11h-2.4c-5.89,0-10.8-.06-16.48-.15l-1.79,0c-8.46-.11-19-.25-36.54-.25l-12.33,0c-46.9.15-82.72,6.69-92.59,8.7l-.53.11c-4.25.87-15.16,3.46-22.15,5.66l-4.63,1.46Z"/><polygon class="cls-3" points="45.99 211.46 64.77 211.44 64.79 235.68 78.71 235.66 78.72 211.44 97.51 211.44 97.51 281.7 78.73 281.7 78.73 254.45 64.8 254.44 64.79 281.68 45.98 281.7 45.99 211.46"/><polyline class="cls-3" points="269.14 211.44 287.03 211.44 287.03 281.7 268.34 281.7 268.34 211.44"/><path class="cls-3" d="M103.4,254.78c0-21.59,16-27.9,26.35-28s26.35,6.16,26.35,27.77-15.78,28.57-26.17,28.6-26.52-6.86-26.52-28.42m26.41,12c4,0,10.18-2.33,10.12-12.21s-6.24-12.16-10.25-12.16-10.17,2.32-10.12,12.22,6.24,12.19,10.25,12.15"/><path class="cls-3" d="M321.38,269a8.94,8.94,0,0,1-5.31,1.59c-2,0-5.21-1.36-5.27-4.53,0-4.45,4.56-5.74,6.46-6.42,4.15-1.42,8-1.78,7.86-3a25.73,25.73,0,0,1-.08,5.08c-.29,3.57-1.53,6-3.67,7.32m18.86-25.35c0-14.05-11.15-17-20.8-17-7.58,0-14.41.88-20.19,5.93l-1.17,13.47c7.07-3.68,11.5-6.34,18.34-6.37,3.05,0,6.34.38,6.46,4.1.24,7.58-28.88,3.43-28.79,23.7,0,11.28,6.71,15.71,17.72,15.63,6.79,0,10.87-4.75,11.78-5.65l0,4.17h16.63Z"/><path class="cls-3" d="M438.61,277.46c-2.89,3.41-7.43,5.71-14.08,5.71-14.33.06-20.38-15.39-20.44-30.1-.09-11.5,5.57-26.28,20.92-26.35,5.73,0,11.58,1.48,13.07,4.39h.14V211.44h18.69V281.7h-18.3Zm-9.25-10c3.55,0,9-2.45,9-12.83s-5.58-12.76-9.1-12.76-9.59,2.48-9.54,12.84,6.12,12.75,9.67,12.75"/><path class="cls-3" d="M347.76,228.32h18.82l0,5.05h-.08c3.49-5.48,8.16-6.82,15.65-6.83,8.77,0,17,5.43,17.12,17.88V281.7H380.54l.08-29.37c0-6.73-1.77-9.13-6.88-9.13-4.34,0-7.22,2.37-7.16,9V281.7H347.76V228.32"/><path class="cls-3" d="M241.66,281.7V252.83c-.05-6.74-1.78-9.13-6.89-9.11-4.34,0-7,2.48-7,9.07V281.7H209.12V211.44h18.53l0,22.43h0c3.47-5.48,8.11-6.82,15.56-6.85,8.77,0,16.91,5.43,17,17.88v36.8H241.66"/><path class="cls-3" d="M201.57,265.72c-1.59,1-7.2,2.39-12.71,2.4-6.92,0-9.77-5.31-9.83-11.85,0-8,4.53-11.16,10.18-12.06,2.11-.34,9.77.16,12.36,2.46V229.84c-3-2.4-10.25-3-15.66-3-17.24,0-25.54,11.58-25.48,28.33.13,14.8,6,28.06,24,28,3.42,0,13.92-.48,17.12-1.9Z"/></g></g></svg>