<?xml version="1.0" encoding="UTF-8" standalone="no"?>
<!-- Generator: Adobe Illustrator 25.2.0, SVG Export Plug-In . SVG Version: 6.00 Build 0)  -->

<svg
   xmlns:dc="http://purl.org/dc/elements/1.1/"
   xmlns:cc="http://creativecommons.org/ns#"
   xmlns:rdf="http://www.w3.org/1999/02/22-rdf-syntax-ns#"
   xmlns:svg="http://www.w3.org/2000/svg"
   xmlns="http://www.w3.org/2000/svg"
   xmlns:sodipodi="http://sodipodi.sourceforge.net/DTD/sodipodi-0.dtd"
   xmlns:inkscape="http://www.inkscape.org/namespaces/inkscape"
   version="1.1"
   id="Layer_1"
   x="0px"
   y="0px"
   viewBox="0 0 1041.9492 626.15985"
   xml:space="preserve"
   sodipodi:docname="HorseForce.svg"
   inkscape:version="0.92.4 (5da689c313, 2019-01-14)"
   width="1041.9492"
   height="626.15985"><metadata
   id="metadata9"><rdf:RDF><cc:Work
       rdf:about=""><dc:format>image/svg+xml</dc:format><dc:type
         rdf:resource="http://purl.org/dc/dcmitype/StillImage" /></cc:Work></rdf:RDF></metadata><defs
   id="defs7" /><sodipodi:namedview
   pagecolor="#ffffff"
   bordercolor="#666666"
   borderopacity="1"
   objecttolerance="10"
   gridtolerance="10"
   guidetolerance="10"
   inkscape:pageopacity="0"
   inkscape:pageshadow="2"
   inkscape:window-width="1536"
   inkscape:window-height="793"
   id="namedview5"
   showgrid="false"
   inkscape:zoom="0.472"
   inkscape:cx="608.50072"
   inkscape:cy="334.55017"
   inkscape:window-x="1912"
   inkscape:window-y="-8"
   inkscape:window-maximized="1"
   inkscape:current-layer="Layer_1" />
<path
   d="m 1041.9492,545.06781 c 0,5.63551 -4.6425,10.20794 -10.2922,10.20794 -5.7075,0 -10.3384,-4.57243 -10.3384,-10.20794 0,-5.63552 4.6309,-10.26511 10.2921,-10.26511 5.696,0 10.3385,4.57243 10.3385,10.26511 z m -19.0445,0 c 0,4.74389 3.9594,8.65332 8.7523,8.65332 4.7467,0 8.7061,-3.90943 8.7061,-8.65332 0,-4.80105 -3.9594,-8.65333 -8.764,-8.65333 -4.735,0 -8.6944,3.85228 -8.6944,8.65333 z m 8.5902,-5.34975 c 2.0839,0 4.8625,0.38866 4.8625,3.06353 0,1.22313 -0.6252,2.06903 -1.9797,2.57199 1.3082,0.56013 1.8176,1.5089 1.8176,3.33788 0,0.44581 0.058,0.96021 0.3357,1.5089 h -2.0376 c -0.2199,-0.44581 -0.2894,-0.89163 -0.2894,-1.16597 0,-2.57199 -0.5557,-2.90349 -3.1606,-2.90349 h -1.5166 v 4.06946 h -1.9218 v -10.4823 z m -0.058,4.84678 c 2.0376,0 2.929,-0.50297 2.929,-1.68037 0,-1.61178 -1.7482,-1.61178 -2.9985,-1.61178 h -1.8639 v 3.29215 z M 15.606083,537.90052 h 52.896286 v 73.3189 H 45.764723 V 554.96711 H 33.597072 c -0.173658,6.97296 -0.347316,11.9912 -0.532552,15.05473 -0.173658,3.06352 -0.428357,6.04703 -0.740941,8.93909 -0.775674,7.00725 -1.921818,12.6542 -3.438433,16.96372 -1.516614,4.29808 -3.577358,7.78456 -6.193809,10.42513 -1.979703,2.0233 -4.190951,3.52077 -6.668474,4.49241 -2.465947,0.97165 -5.2329,1.46318 -8.300862,1.46318 -1.20403,0 -2.350174,-0.0915 -3.438432,-0.26291 -1.088258,-0.17147 -2.188093,-0.43438 -3.276351,-0.78875 v -16.55219 c 0.243121,0.0343 0.49782,0.0572 0.740941,0.08 0.243122,0.0114 0.509398,0.0229 0.798828,0.0229 0.9146,0 1.863931,-0.16003 2.859571,-0.49154 0.984064,-0.3315 1.8292,-0.74302 2.53541,-1.23455 1.863931,-1.25742 3.299506,-3.39503 4.283569,-6.43569 0.984063,-3.02924 1.725005,-7.63596 2.222825,-13.79731 0.173658,-2.48054 0.382048,-6.68718 0.613592,-12.6542 0.231544,-5.95558 0.382048,-11.27103 0.451511,-15.94634 z m 98.174767,-1.09738 c 4.86243,0 9.34281,0.74302 13.42957,2.21763 4.08675,1.48604 7.6178,3.56649 10.58157,6.24136 3.45001,3.09782 6.21696,7.14442 8.27771,12.12837 2.06074,4.98395 3.09111,10.71092 3.09111,17.19233 0,5.57837 -0.83356,10.79094 -2.51225,15.64914 -1.6787,4.85821 -4.05203,8.92767 -7.10841,12.20839 -3.06796,3.21213 -6.79582,5.65838 -11.18359,7.33874 -4.38776,1.6918 -9.25019,2.5377 -14.57571,2.5377 -5.00136,0 -9.47016,-0.68586 -13.38326,-2.05759 -3.913101,-1.37173 -7.478881,-3.56649 -10.685771,-6.56144 -3.87836,-3.62365 -6.73793,-7.84171 -8.59029,-12.64276 -1.85235,-4.81248 -2.77853,-10.2994 -2.77853,-16.46074 0,-6.75577 1.11141,-12.68849 3.33424,-17.79818 2.22282,-5.09826 5.37183,-9.31633 9.47016,-12.61991 2.85957,-2.29764 6.15908,-4.10375 9.921671,-5.40689 3.75102,-1.31458 7.98828,-1.96615 12.71178,-1.96615 z m -0.0231,16.02636 c -1.97971,0 -3.69314,0.52583 -5.14029,1.56606 -1.44715,1.04023 -2.62802,2.52627 -3.5542,4.43526 -0.74094,1.49747 -1.34296,3.54363 -1.80605,6.13848 -0.46308,2.59486 -0.69463,5.64695 -0.69463,9.16772 0,3.55507 0.23155,6.66432 0.69463,9.32776 0.46309,2.66344 1.06511,4.75532 1.80605,6.28709 0.94933,1.95471 2.14178,3.45218 3.57736,4.51527 1.43557,1.06309 3.13742,1.58892 5.11713,1.58892 1.94497,0 3.63524,-0.52583 5.09397,-1.58892 1.44715,-1.06309 2.6396,-2.57199 3.5542,-4.51527 0.77568,-1.53177 1.40085,-3.63508 1.85236,-6.28709 0.46309,-2.66344 0.69463,-5.77269 0.69463,-9.32776 0,-3.52077 -0.23154,-6.57286 -0.69463,-9.16772 -0.46309,-2.59485 -1.07668,-4.64101 -1.85236,-6.13848 -0.9146,-1.92042 -2.10705,-3.39503 -3.5542,-4.43526 -1.45873,-1.04023 -3.149,-1.56606 -5.09397,-1.56606 z m 45.24374,-14.92898 h 21.68412 v 55.82936 h 13.11699 v -55.82936 h 21.63781 v 55.82936 h 13.11698 v -55.82936 h 21.68412 v 73.3189 h -91.24002 z m 144.92356,0 23.32808,73.3189 H 303.8208 l -3.94783,-14.51746 h -20.39905 l -4.00571,14.51746 h -18.61616 l 23.06181,-73.3189 z m -8.34717,42.9694 -5.82334,-21.41039 -5.90438,21.41039 z m 46.48251,-42.9694 h 52.42162 v 55.82936 h 6.50639 v 32.42995 H 380.41564 V 611.21942 H 348.7867 v 14.94041 h -20.57271 v -32.42995 h 5.39498 c 1.62081,-2.99494 2.94061,-5.9213 3.93625,-8.76763 1.00722,-2.85777 1.8292,-6.03561 2.45437,-9.55638 0.63675,-3.52077 1.13457,-7.53308 1.50504,-12.03692 0.37047,-4.50384 0.55571,-9.54494 0.55571,-15.12331 z m 17.56263,17.06659 v 5.89844 c 0,2.99494 -0.17366,6.2185 -0.53255,9.65925 -0.34732,3.45219 -0.86829,6.72147 -1.5282,9.81929 -0.53255,2.33194 -1.14614,4.54957 -1.85235,6.66432 -0.70621,2.10332 -1.5745,4.34381 -2.5933,6.71004 h 18.61616 v -38.75134 z m 50.61557,-17.06659 h 22.74923 V 568.833 c 0,2.11475 -0.0579,4.05804 -0.16208,5.81842 -0.1042,1.76039 -0.27786,3.44075 -0.53256,5.01824 0.27786,-1.30314 0.71779,-2.72059 1.29665,-4.24093 0.57886,-1.52033 1.13457,-2.74345 1.66712,-3.65794 l 15.28192,-28.55482 v -5.32688 h 22.74923 v 73.3189 h -22.74923 v -30.97821 c 0,-2.11474 0.0579,-4.05803 0.16208,-5.82984 0.1042,-1.77182 0.27786,-3.44076 0.53255,-5.02967 -0.31258,1.30314 -0.76409,2.72059 -1.35453,4.24092 -0.57886,1.52034 -1.12299,2.74346 -1.62081,3.65795 l -15.27034,28.41764 v 5.53264 h -22.74923 z m 139.27388,0 v 73.3189 h -22.74928 v -28.87489 h -17.56263 v 28.87489 h -22.74922 v -73.3189 h 22.74922 v 27.36599 h 17.56263 v -27.36599 z m 53.68353,0 23.32809,73.3189 h -23.43228 l -3.94783,-14.51746 h -20.39905 l -4.00572,14.51746 H 556.123 l 23.06181,-73.3189 z m -8.35875,42.9694 -5.82333,-21.41039 -5.90438,21.41039 z m 102.71304,-42.9694 v 73.3189 h -22.74927 v -27.36599 h -6.86529 l -12.61916,27.36599 h -24.09218 l 16.49752,-29.92655 c -1.75973,-0.52583 -3.49631,-1.26885 -5.18659,-2.24049 -1.69027,-0.97164 -3.16058,-2.10331 -4.38776,-3.39503 -1.62081,-1.73752 -2.8943,-3.8637 -3.8089,-6.3671 -0.9146,-2.50341 -1.37769,-5.33831 -1.37769,-8.51615 0,-4.28665 0.87987,-8.05891 2.6396,-11.32819 1.75974,-3.26929 4.17938,-5.85271 7.24734,-7.72741 2.11863,-1.326 4.61931,-2.28621 7.51361,-2.90349 2.8943,-0.60585 6.11277,-0.91449 9.67855,-0.91449 z m -22.73765,16.44932 H 664.3931 c -1.48188,0 -2.75538,0.1486 -3.83206,0.44581 -1.07668,0.29721 -1.96812,0.72016 -2.67433,1.28028 -0.67148,0.56012 -1.20403,1.23455 -1.58608,2.03473 -0.39363,0.80017 -0.57886,1.79468 -0.57886,2.97208 0,1.12024 0.18523,2.04616 0.5557,2.78918 0.37048,0.74302 0.90303,1.41745 1.60924,2.01187 0.84513,0.663 1.79446,1.14311 2.82484,1.46318 1.04195,0.30863 2.26913,0.46867 3.68155,0.46867 h 10.41949 z m 124.29296,11.45393 -21.23261,1.09738 c 0,-1.42888 -0.12735,-2.90349 -0.37047,-4.42382 -0.24312,-1.52033 -0.60201,-2.76632 -1.05352,-3.73796 -0.81041,-1.85184 -1.96813,-3.25786 -3.47317,-4.24093 -1.50504,-0.97164 -3.18373,-1.46318 -5.05924,-1.46318 -2.29229,0 -4.19095,0.64014 -5.69599,1.90899 -1.50504,1.26885 -2.73222,3.21213 -3.68155,5.81842 -0.63675,1.77181 -1.07668,3.70367 -1.31981,5.79555 -0.24312,2.09189 -0.37047,4.78962 -0.37047,8.0932 0,3.79512 0.15051,6.77863 0.45151,8.96196 0.30101,2.1719 0.83356,4.11519 1.60924,5.81842 0.94933,2.12618 2.15336,3.72653 3.60051,4.80105 1.44715,1.07452 3.2532,1.62321 5.40656,1.62321 1.87551,0 3.47316,-0.40009 4.81612,-1.20026 1.34296,-0.80018 2.51226,-2.11475 3.49632,-3.95515 0.67148,-1.2117 1.18087,-2.45768 1.53977,-3.72653 0.34731,-1.26885 0.53255,-2.58343 0.53255,-3.93229 l 20.81583,1.25742 c -0.24312,3.8294 -1.13457,7.44162 -2.67434,10.81379 -1.53977,3.3836 -3.63524,6.34424 -6.32116,8.88194 -2.99849,2.89206 -6.43693,4.99538 -10.31529,6.32139 -3.87837,1.326 -8.05774,1.989 -12.53812,1.989 -7.37469,0 -13.58008,-1.54319 -18.61616,-4.62958 -5.04767,-3.08639 -8.93761,-7.27016 -11.69299,-12.57418 -1.44715,-2.7206 -2.53541,-5.72697 -3.2532,-9.00769 -0.71778,-3.29215 -1.08825,-6.92723 -1.08825,-10.89381 0,-7.04154 1.04195,-13.05428 3.149,-18.04966 2.09547,-4.99538 5.0824,-9.16772 8.96076,-12.51702 3.10269,-2.68631 6.48324,-4.66388 10.15322,-5.93273 3.66997,-1.26885 7.79146,-1.90899 12.37604,-1.90899 4.7235,0 9.06496,0.70873 13.03594,2.11475 3.97098,1.40602 7.43257,3.60079 10.39634,6.56143 2.57014,2.61772 4.59615,5.65838 6.07803,9.14486 1.49346,3.48648 2.26914,7.21301 2.3386,11.19102 z m 8.52083,-27.90325 h 22.73765 V 568.833 c 0,2.11475 -0.0579,4.05804 -0.16208,5.81842 -0.1042,1.76039 -0.27786,3.44075 -0.53256,5.01824 0.27786,-1.30314 0.71779,-2.72059 1.29665,-4.24093 0.57886,-1.52033 1.13457,-2.74345 1.66712,-3.65794 l 15.28192,-28.55482 v -5.32688 h 22.73765 v 73.3189 h -22.73765 v -30.97821 c 0,-2.11474 0.0579,-4.05803 0.16208,-5.82984 0.1042,-1.77182 0.27786,-3.44076 0.53255,-5.02967 -0.31258,1.30314 -0.76409,2.72059 -1.35453,4.24092 -0.57886,1.52034 -1.12299,2.74346 -1.62081,3.65795 l -15.28192,28.39478 v 5.53264 h -22.72607 z m 85.31248,0 h 52.89629 v 73.3189 h -22.7377 v -56.25231 h -12.16765 c -0.17366,6.97296 -0.34731,11.9912 -0.53255,15.05473 -0.17366,3.06352 -0.41678,6.04703 -0.74094,8.93909 -0.77568,7.00725 -1.92182,12.6542 -3.43843,16.96372 -1.51662,4.29808 -3.57736,7.78456 -6.19381,10.42513 -1.97971,2.0233 -4.19095,3.52077 -6.66848,4.49241 -2.46594,0.97165 -5.2329,1.46318 -8.30086,1.46318 -1.20403,0 -2.35017,-0.0915 -3.43843,-0.26291 -1.08826,-0.17147 -2.1881,-0.43438 -3.27635,-0.78875 v -16.55219 c 0.24312,0.0343 0.49782,0.0572 0.74094,0.08 0.24312,0.0114 0.5094,0.0229 0.78725,0.0229 0.9146,0 1.87551,-0.16003 2.85957,-0.49154 0.98406,-0.3315 1.8292,-0.74302 2.53541,-1.23455 1.86393,-1.25742 3.29951,-3.39503 4.28357,-6.43569 0.98406,-3.02924 1.725,-7.63596 2.22282,-13.79731 0.17366,-2.48054 0.38205,-6.68718 0.6136,-12.6542 0.23154,-5.95558 0.38204,-11.27103 0.45151,-15.94634 z m 106.57989,0 23.3281,73.3189 h -23.4323 l -3.9478,-14.51746 h -20.3991 l -4.0057,14.51746 h -18.6162 l 23.0618,-73.3189 z m -8.3588,42.9694 -5.8233,-21.41039 -5.9044,21.41039 z M 0,341.93766 h 375.42586 v -8.17322 H 0 Z m 649.5048,-8.17322 v 8.17322 h 375.4259 v -8.17322 z M 511.96751,425.4645 c -4.89716,0 -8.90287,3.95515 -8.90287,8.79049 0,4.83535 4.00571,8.7905 8.90287,8.7905 4.89717,0 8.90288,-3.95515 8.90288,-8.7905 0,-4.83534 -4.00571,-8.79049 -8.90288,-8.79049 z M 371.698,433.28335 c -8.43979,-5.00681 -15.72185,-6.7329 -23.4207,-8.56187 l -0.5094,-0.12574 c -7.00421,-1.65751 -12.23711,-3.0521 -15.93024,-5.86414 -4.573,-3.48648 -6.70321,-7.2473 -6.70321,-11.85402 0,-3.50934 0.90302,-8.36755 5.20975,-11.61397 3.64682,-2.75489 8.52083,-4.16091 14.03158,-4.02374 4.7235,0.10288 10.03744,1.53176 14.58729,3.90943 3.68155,1.92042 5.76545,3.70366 7.2126,6.16134 l 0.17366,0.28578 v 9.38491 h 12.79282 v -30.45237 h -12.79282 v 7.59023 l -1.89866,-1.15454 c -2.03759,-1.23456 -4.8277,-2.92636 -6.58744,-3.60079 -4.19095,-1.60035 -8.5324,-3.24642 -13.63795,-3.31501 -10.1648,-0.0686 -17.55106,2.3548 -23.51332,7.77313 -5.95069,5.4069 -8.45137,11.78544 -7.87251,20.07296 0.56728,8.01318 3.69313,13.55725 10.4658,18.50691 6.1475,4.50384 13.22118,6.42426 19.4613,8.11606 l 2.03759,0.56012 c 5.90437,1.63464 12.10976,3.5322 17.44686,7.01868 4.63088,3.02923 9.51646,8.5733 9.40069,15.03186 -0.11577,5.93273 -2.95219,11.03098 -7.77988,13.99163 -3.83206,2.3548 -8.43979,3.39503 -14.92303,3.39503 -4.45723,0 -12.42235,-2.5377 -21.82305,-6.98439 l -0.70621,-0.3315 v -6.42426 h -12.8507 v 24.38248 h 12.8507 v -7.05297 l 1.78289,0.8459 c 7.20103,3.40646 16.50911,5.92129 20.00543,6.2185 8.02301,0.69729 14.96933,-0.26292 20.63059,-2.80061 12.71178,-5.7384 15.99971,-18.26686 15.93025,-24.77114 -0.1042,-10.58517 -4.86243,-19.45568 -13.07068,-24.31389 z m -79.94065,38.85422 c -0.0926,-2.57199 -0.27786,-14.11738 -0.27786,-17.39809 0,-8.61903 -2.72064,-14.07165 -8.56713,-17.18091 -2.37333,-1.25741 -4.50354,-2.18333 -6.37905,-2.99494 -0.93775,-0.41152 -1.80604,-0.77731 -2.57014,-1.1431 l -1.95655,-0.92592 1.79447,-1.20026 c 0.79883,-0.53726 1.725,-1.06309 2.73222,-1.62322 2.0839,-1.1774 4.45723,-2.52626 6.85371,-4.65244 5.60337,-4.97252 7.88408,-9.94503 7.88408,-17.15804 0,-8.84765 -3.70471,-15.71772 -11.0215,-20.42733 -7.1663,-4.61815 -16.08075,-6.85864 -27.26434,-6.85864 H 214.2016 v 11.81973 h 10.68576 V 473.3264 H 214.2016 v 11.81973 h 34.89372 V 473.3264 h -10.68577 v -34.48755 h 14.51782 c 7.421,0.0229 13.38326,0.97165 16.81012,2.66344 3.26477,1.61179 5.26763,3.21214 6.50639,5.21257 1.33138,2.16048 2.01444,4.7439 2.01444,7.69311 v 30.74959 h 24.35845 v -11.81973 h -10.78996 z m -39.54776,-45.39279 h -13.81162 v -34.3618 h 14.51783 c 7.31679,0 13.19802,0.56012 18.12991,3.29215 4.573,2.54913 7.18945,7.01867 7.18945,12.27697 0,5.58979 -2.62803,10.32226 -7.60623,13.68299 -4.9782,3.39503 -11.17201,5.10969 -18.41934,5.10969 z M 90.371729,392.41727 H 101.05749 V 380.54039 H 66.094309 v 11.87688 h 10.69734 v 34.30465 H 26.152924 V 392.41727 H 36.850269 V 380.54039 H 1.898663 v 11.87688 h 10.697345 v 80.87484 H 1.898663 v 11.87688 H 36.850269 V 473.29211 H 26.152924 v -34.43039 h 50.638725 v 34.43039 h -10.69734 v 11.87688 H 101.05749 V 473.29211 H 90.371729 Z M 196.72,395.6294 v 0 c -10.66261,-10.20795 -23.61751,-15.38622 -38.50581,-15.38622 -14.98091,0 -27.93581,5.17827 -38.50581,15.38622 -10.58157,10.21938 -15.9534,22.69068 -15.9534,37.09383 0,14.41458 5.41814,26.94304 16.09233,37.231 10.65104,10.2994 23.57121,15.51197 38.36688,15.51197 14.91145,0 27.85478,-5.224 38.49424,-15.51197 10.67419,-10.28796 16.08075,-22.80499 16.08075,-37.231 0.0116,-14.40315 -5.39499,-26.88588 -16.06918,-37.09383 z m -9.14599,65.44289 c -8.18509,7.9103 -18.06046,11.92261 -29.34824,11.92261 -11.28778,0 -21.13999,-3.98945 -29.27877,-11.85402 -8.1272,-7.85315 -12.24869,-17.3981 -12.24869,-28.37193 0,-10.88238 4.12149,-20.3816 12.24869,-28.22331 8.1272,-7.86458 17.97941,-11.85402 29.27877,-11.85402 11.3804,0 21.27892,3.98944 29.40612,11.85402 8.12721,7.84171 12.24869,17.34093 12.24869,28.22331 0,10.88239 -4.14464,20.40447 -12.30657,28.30334 z m 272.21501,-56.27517 h 12.67704 v -24.25673 h -76.87269 v 11.87688 h 10.70892 v 80.87484 h -10.70892 v 11.87688 h 76.84954 v -24.38248 h -12.65389 v 12.5056 h -39.92981 v -34.43039 h 14.96933 v 12.24267 h 12.76967 v -36.64801 h -12.76967 v 12.26554 h -14.96933 v -34.30465 h 39.92981 z m 362.89931,67.37474 c -0.081,-2.46911 -0.26627,-13.9802 -0.26627,-17.39809 0,-8.6076 -2.72065,-14.07165 -8.56714,-17.1809 -2.38491,-1.26885 -4.51511,-2.18334 -6.39062,-3.00637 -0.93776,-0.40009 -1.79447,-0.77732 -2.57014,-1.14311 l -1.95655,-0.92592 1.79447,-1.20026 c 0.79882,-0.53726 1.71342,-1.05166 2.72064,-1.61178 2.0839,-1.18883 4.45723,-2.52627 6.86529,-4.66388 5.59179,-4.96109 7.88408,-9.9336 7.88408,-17.15804 0,-8.84765 -3.70471,-15.71772 -11.02151,-20.42732 -7.16629,-4.61816 -16.09232,-6.85865 -27.26433,-6.85865 h -38.78367 v 11.81973 h 10.68577 v 80.93199 h -10.68577 v 11.81973 h 34.89372 v -11.81973 h -10.68576 v -34.48754 h 14.51782 c 7.421,0.0229 13.39484,0.96021 16.81011,2.652 3.2532,1.60036 5.25606,3.21214 6.49482,5.224 1.33138,2.14905 2.01444,4.73247 2.01444,7.69312 v 30.73815 h 24.35845 v -11.81973 h -10.80154 z m -39.54776,-45.39279 h -13.80003 v -34.3618 h 14.51782 c 7.3168,0 13.19802,0.56012 18.12992,3.29215 4.573,2.5377 7.18945,7.01868 7.18945,12.27697 0,5.5898 -2.62803,10.32226 -7.60623,13.68299 -4.9782,3.3836 -11.18359,5.10969 -18.43093,5.10969 z m 227.34173,-21.98195 h 12.6771 v -24.25673 h -76.87274 v 11.87688 H 956.984 v 80.87484 h -10.69734 v 11.87688 h 76.84954 v -24.38248 h -12.6539 v 12.5056 h -39.9298 v -34.43039 h 14.9693 v 12.24267 h 12.7697 v -36.64801 h -12.7697 v 12.26554 h -14.9693 v -34.30465 h 39.9298 z M 892.32527,380.33463 c -14.98091,0 -27.92424,5.16684 -38.48266,15.36336 -10.58157,10.21938 -15.9534,22.69068 -15.9534,37.0824 0,14.32313 5.40656,26.79443 16.06918,37.08239 10.63946,10.28797 23.50174,15.51197 38.23953,15.51197 7.76831,0 14.47152,-0.77731 21.93882,-4.561 8.17351,-4.13805 15.83763,-12.17409 19.24133,-16.81511 -1.64397,-1.85183 -5.95069,-6.58429 -8.01143,-8.80192 -1.86394,2.6863 -5.32552,7.64739 -12.13292,12.37985 -5.11713,3.55506 -12.53812,5.50978 -20.90845,5.50978 -11.33409,0 -21.22103,-3.98945 -29.39454,-11.86546 -8.15036,-7.87601 -12.28343,-17.44381 -12.28343,-28.4405 0,-10.90525 4.13307,-20.4159 12.28343,-28.29191 8.17351,-7.87601 18.06045,-11.87688 29.39454,-11.87688 7.24734,0 14.10105,1.90899 20.36432,5.65838 5.75387,3.45218 8.02301,5.26972 8.91445,6.18421 l 0.34732,0.35436 v 9.48779 h 12.73493 v -30.87532 h -12.73493 v 8.5733 l -1.97971,-1.46318 c -1.63238,-1.21169 -3.83205,-2.60628 -6.7032,-4.27522 -6.81898,-3.92085 -13.85793,-5.92129 -20.94318,-5.92129 z M 725.24293,395.6294 v 0 c -10.66261,-10.20795 -23.62909,-15.38622 -38.50581,-15.38622 -14.98091,0 -27.92424,5.17827 -38.49423,15.38622 -10.58157,10.21938 -15.9534,22.69068 -15.9534,37.09383 0,14.40315 5.40656,26.92018 16.06917,37.231 10.65104,10.28797 23.57121,15.51197 38.37846,15.51197 14.89987,0 27.85478,-5.224 38.50581,-15.51197 10.66262,-10.31082 16.06917,-22.82785 16.06917,-37.231 0,-14.39172 -5.40655,-26.87445 -16.06917,-37.09383 z m -9.146,65.44289 c -8.18509,7.92173 -18.07203,11.92261 -29.37139,11.92261 -11.28778,0 -21.13999,-3.98945 -29.29034,-11.85402 -8.11563,-7.86458 -12.22554,-17.40953 -12.22554,-28.37193 0,-10.88238 4.10991,-20.37017 12.22554,-28.22331 8.13878,-7.86458 17.99098,-11.85402 29.29034,-11.85402 11.39198,0 21.2905,3.98944 29.4177,11.85402 8.12721,7.84171 12.24869,17.34093 12.24869,28.22331 0.0116,10.87095 -4.13306,20.38161 -12.295,28.30334 z M 615.67619,404.79712 h 12.68862 v -24.25673 h -76.88427 v 11.87688 h 10.69735 v 80.87484 h -10.69735 v 11.87688 h 38.52897 v -11.87688 h -14.26313 v -34.43039 h 14.98091 v 12.24267 h 12.73494 v -36.64801 h -12.73494 v 12.26554 h -14.98091 v -34.30465 h 39.92981 z M 634.43127,86.69325 c -0.0463,-13.14573 -0.0579,-23.3994 -0.0579,-28.40621 V 48.3763 h -10.74366 c -42.90515,0 -78.73662,-22.14199 -105.15582,-41.42621 L 512.0138,2.29765 505.43795,6.81292 C 479.35449,24.65682 440.06142,48.3763 400.30527,48.3763 h -10.74365 l 0.0116,38.29409 c 0.0347,41.03755 0.0695,113.40766 -0.0116,137.06998 -0.0926,22.39347 5.88123,39.44863 18.78982,53.68032 12.63074,13.96877 29.9734,23.55944 46.73721,32.8186 l 1.12299,0.62871 c 16.72907,9.23631 34.02543,18.79269 47.96439,32.47568 l 7.75673,7.61309 7.88408,-7.56737 c 13.58008,-13.30576 30.63331,-22.57636 47.13084,-31.53832 l 1.20403,-0.65158 c 16.62488,-9.13342 33.81704,-18.57549 46.5404,-32.26991 13.08225,-14.10594 19.32236,-31.64121 19.66968,-55.18922 0.33574,-23.09076 0.17366,-87.98496 0.0695,-130.90863 z m -12.37604,137.41292 c 1.23876,44.37542 -25.18044,58.59567 -58.61543,76.59961 l -2.29228,1.23456 c -16.89116,9.12199 -34.22225,18.47261 -48.57799,31.90412 l -0.57886,0.53726 -0.56728,-0.53726 c -14.76095,-13.95734 -32.38147,-23.5823 -49.42313,-32.8872 l -5.32552,-2.88063 C 425.46258,281.19294 400.81469,267.85288 401.86822,223.98042 V 59.8188 l 0.8104,-0.0114 c 32.09204,-0.64014 66.61529,-14.23169 108.64057,-42.77507 l 0.48624,-0.3315 0.47467,0.34293 c 40.20766,29.00063 73.81631,42.19209 108.96473,42.77507 l 0.8104,0.0114 z m -73.42268,8.59616 c -1.44715,2.74346 -3.71629,5.20114 -6.77267,7.29303 l -5.12871,3.5322 h 53.76458 l -5.42971,-3.54363 c -3.12585,-2.0576 -5.41814,-4.49242 -6.81898,-7.21301 -1.35454,-2.78918 -2.03759,-6.81292 -2.03759,-11.9569 V 116.77983 c 0,-4.99538 0.68305,-8.9391 2.03759,-11.71685 1.35453,-2.70916 3.60051,-5.17827 6.90002,-7.55594 l 4.874,-3.4979 h -52.8384 l 4.61931,3.48647 c 3.20689,2.40053 5.42972,4.8925 6.83056,7.6131 1.40084,2.65201 2.0839,6.46998 2.0839,11.67112 v 34.70474 h -77.49787 v -34.70474 c 0,-5.09826 0.6599,-9.05341 1.96813,-11.71685 1.37769,-2.72059 3.63524,-5.20113 6.91159,-7.55594 l 4.87401,-3.4979 h -52.8384 l 4.61931,3.48647 c 3.17216,2.3891 5.41813,4.86964 6.83055,7.6131 1.41242,2.6863 2.13021,6.60716 2.13021,11.67112 v 104.03419 c 0,5.224 -0.70621,9.21344 -2.13021,11.89974 -1.45872,2.74346 -3.73943,5.20114 -6.77266,7.29303 l -5.12871,3.5322 h 53.753 l -5.41814,-3.54363 c -3.12584,-2.04617 -5.41813,-4.48098 -6.81897,-7.23587 -1.31981,-2.66344 -1.97971,-6.67575 -1.97971,-11.93404 v -48.81068 h 77.49787 v 48.81068 c 0,5.33831 -0.68306,9.22487 -2.0839,11.87688 z M 374.09448,105.82886 c -0.1505,-0.78874 -0.25469,-1.58891 -0.37047,-2.38909 -0.25469,-1.78325 -0.52097,-3.61222 -1.08825,-5.33831 -1.29665,-4.02374 -2.89431,-8.00175 -4.43408,-11.83116 l -0.70621,-1.78325 c -0.33574,-0.89162 -1.07668,-2.0233 -2.02601,-2.34337 -4.94347,-1.68036 -8.72922,-5.14398 -12.38762,-8.51615 -0.79882,-0.73158 -1.60923,-1.4746 -2.41963,-2.18333 -5.91596,-5.23543 -14.08947,-5.14398 -19.43815,0.1486 -2.98692,2.94922 -5.71914,6.04704 -8.60186,9.33919 -1.22719,1.39459 -2.47753,2.82347 -3.77418,4.27522 l -2.09547,1.09738 c -4.1678,-4.86963 -8.43979,-9.7507 -12.60759,-14.47173 -3.41527,-3.87514 -6.81897,-7.77313 -10.19952,-11.67113 -3.20689,-3.7151 -6.56428,-7.73883 -9.5512,-12.00262 -1.11141,-1.55463 -1.75974,-3.5322 -2.37333,-5.44119 -0.16208,-0.46868 -0.31259,-0.93735 -0.47467,-1.39459 -0.0463,-0.14861 -0.0695,-0.32007 -0.0579,-0.5144 2.29229,4.17234 6.06646,6.65288 11.47302,7.52164 1.92181,0.30864 3.85521,0.73159 5.73072,1.13168 2.07232,0.45724 4.20252,0.91448 6.33273,1.23455 5.96227,0.90306 8.86815,3.40646 9.71328,8.40184 l 0.1042,0.64014 0.64832,-0.11431 c 1.1693,-0.21719 2.31545,-0.42295 3.45001,-0.61728 2.79011,-0.4801 5.42971,-0.93734 8.03459,-1.68036 1.29665,-0.3658 2.35017,-1.60035 2.88272,-3.3836 0.62517,-2.01187 0.57886,-4.98395 -0.97248,-6.7672 -1.44715,-1.63464 -2.91746,-3.24642 -4.39934,-4.8582 -2.61645,-2.85777 -5.30237,-5.80699 -7.76831,-8.84765 -2.16494,-2.70917 -4.54985,-5.94416 -5.80019,-9.43064 -2.02601,-5.66981 -5.95068,-9.70498 -12.38761,-12.67705 -0.32417,-0.16004 -0.64833,-0.32007 -1.05353,-0.49154 0.70621,-1.47461 1.40084,-2.91492 2.09547,-4.34381 l 2.02602,-4.18377 -0.71779,-1.41745 -0.53255,0.20576 C 296.38821,2.60628 292.4288,4.08089 288.33047,5.57836 285.55194,1.78325 281.25679,0 274.92406,0 c -0.19681,0 -0.38205,0 -0.59044,0 l -2.21125,0.0457 5.81176,3.49791 0.3589,0.20576 C 273.16432,2.32049 268.0935,3.62363 263.10372,4.88105 l -4.573,1.15454 14.7378,2.3205 C 266.60004,8.8362 259.90841,9.3163 253.21678,9.81927 l -3.20688,0.22862 0.97248,0.97164 c 2.79011,2.76632 6.49482,4.44669 11.29936,5.0754 -0.16208,0.0114 -0.32416,0.0457 -0.48624,0.0572 -1.88709,0.26292 -3.84364,0.53727 -5.75388,0.68587 -7.49045,0.5144 -12.60758,4.35524 -15.65239,11.73971 l -0.71779,1.73752 2.77854,-1.62321 c 3.77417,-2.22906 7.3631,-4.34381 11.79718,-4.34381 0.0347,0 0.0695,0 0.11577,0 -11.42671,4.49241 -19.56549,10.00219 -22.48295,20.78169 l -0.38205,1.39459 1.29665,-0.68586 c 0.82198,-0.42295 1.64396,-0.85733 2.47752,-1.31457 2.43122,-1.29172 4.94347,-2.65201 7.52519,-3.81798 0.31259,-0.20576 1.0188,0.0686 1.64397,0.26291 0.16208,0.0572 0.33574,0.10288 0.49782,0.14861 -0.0116,0.19432 -0.0463,0.36579 -0.0579,0.53726 -0.0695,0.75445 -0.16208,1.53176 -0.49782,1.97757 -0.62517,0.83447 -1.50504,1.48604 -2.43121,2.18334 -0.3589,0.26291 -0.70621,0.52583 -1.06511,0.78874 -1.30822,1.07452 -2.6396,2.11475 -3.97098,3.16641 -2.96377,2.32051 -6.02015,4.7096 -8.78711,7.31588 -3.21846,3.02924 -4.88558,7.06441 -4.95504,11.97977 l -0.0116,1.80611 1.1693,-1.38316 c 0.47466,-0.57156 0.90302,-1.15454 1.30822,-1.70323 0.84514,-1.10882 1.64397,-2.17191 2.61645,-2.88063 3.45001,-2.59486 6.39062,-4.49241 9.27335,-5.96702 3.63525,-1.88613 7.33995,-3.55507 11.25305,-5.31545 0.79883,-0.3658 1.60923,-0.73159 2.41964,-1.09738 -1.12299,1.42888 -2.19967,2.78918 -3.49632,3.88656 -2.45437,2.12618 -5.14028,3.98944 -7.9767,5.5555 -10.871,6.00131 -15.33981,15.47767 -14.10104,29.82367 0.0926,1.1774 0.27785,2.26335 0.57886,3.37216 l 0.54412,2.08046 0.68306,-2.04616 c 1.72501,-5.224 4.14464,-11.01956 8.94919,-15.5234 -3.61209,6.7672 -6.04331,12.87139 -7.54835,19.03274 -0.39362,1.58892 -0.53255,3.23499 -0.60201,4.77818 l -0.19681,3.30358 1.41242,-3.0178 c 3.0448,-6.48142 7.65253,-12.05978 12.10976,-17.43238 2.04917,-2.49198 4.17937,-5.04111 6.13592,-7.69311 0.2547,2.28621 -0.38204,5.06396 -1.77131,7.41876 -1.99128,3.40646 -3.85521,5.93273 -5.85807,7.9103 -8.75237,8.7562 -14.2284,19.91293 -17.75944,36.17935 -0.12735,0.59441 0.0347,1.16597 0.19681,1.64607 l 0.52097,1.52033 0.68306,-1.46317 c 3.53105,-7.71598 8.35875,-13.94591 14.71464,-18.97558 -3.93626,5.887 -6.58744,12.45986 -7.83778,19.5357 -0.9146,5.224 -3.23004,10.20795 -7.08525,15.27191 l -1.78289,2.36623 2.61645,-1.42888 c 6.34431,-3.45219 11.91295,-8.33325 18.0836,-15.84347 3.73944,-4.54956 6.77267,-9.65925 9.19231,-15.51196 -0.75252,3.47504 -2.02601,6.89293 -3.79732,10.2651 -4.89717,9.36205 -12.23712,17.70673 -22.4598,25.55988 -6.56428,5.0411 -13.30222,10.4137 -19.99384,15.94634 -2.16494,1.79468 -4.51512,1.79468 -7.02737,1.68037 l -2.32702,-0.16003 c -4.1678,-0.29721 -8.50925,-0.57156 -12.64232,-0.0915 -5.69599,0.68586 -10.28056,4.08089 -13.2096,9.84215 -3.21846,6.30995 -4.98978,13.24861 -5.25605,20.62165 -0.46309,12.19696 -0.31259,24.69112 -0.16209,35.44776 0.16209,8.83622 0.32417,18.86127 -3.61209,28.08614 l -0.85671,2.00044 1.81762,-1.22313 c 4.28357,-2.90349 6.87687,-7.29302 7.52519,-12.66562 0.54413,-4.49241 0.47467,-9.09914 0.39363,-13.55725 l -0.0116,-1.5432 c -0.0347,-1.57749 -0.0926,-3.13211 -0.1505,-4.7096 0,-0.0457 0,-0.0686 0,-0.10288 0.76409,5.887 1.53977,11.9569 1.94497,17.94678 0.74094,10.90525 -1.8292,19.76433 -7.83778,27.12594 l -0.31258,0.36579 0.30101,0.38866 c 0.0926,0.1486 0.19681,0.29721 0.27785,0.42295 l 0.43993,0.69729 0.53256,-0.32007 c 0.68305,-0.38865 1.37768,-0.77731 2.07232,-1.13167 1.49346,-0.80018 3.01007,-1.63465 4.34145,-2.69774 6.28643,-5.13255 8.96076,-12.35699 10.92889,-19.42139 2.55857,-9.16772 0.71779,-17.95821 -1.73658,-27.68605 -1.23876,-4.86964 -2.32702,-9.79643 -3.31108,-14.39172 -0.11578,-0.5487 -0.17366,-1.13168 -0.19682,-1.73753 1.65555,4.06946 3.31109,8.11606 4.94347,12.18553 2.21125,5.50977 3.02166,10.32225 2.52384,15.14617 l -0.20839,1.96614 1.33138,-1.48604 c 3.09111,-3.48648 3.53105,-7.69311 3.54262,-11.75114 0.0463,-9.22488 -2.51225,-18.07253 -5.00135,-25.51415 -1.35454,-4.06947 -2.36175,-7.4302 -3.14901,-10.57375 -0.17365,-0.73158 -0.26627,-1.48603 -0.31258,-2.24049 0.97249,2.10332 2.30387,3.97802 3.58894,5.80699 0.90302,1.30314 1.8292,2.62915 2.61645,3.98944 1.37768,2.37767 2.21124,5.15542 3.0448,7.84172 0.38205,1.26885 0.75252,2.52627 1.19246,3.74939 l 1.01879,2.90349 0.21997,-3.06352 c 0.0463,-0.59442 0.1505,-1.22313 0.23154,-1.88613 0.23155,-1.57749 0.48625,-3.34931 0.12735,-5.01824 -0.5557,-2.49198 -1.49346,-4.92679 -2.39648,-7.27016 -0.43994,-1.16597 -0.89145,-2.32051 -1.29665,-3.49791 -0.27785,-0.81161 -0.57886,-1.64608 -0.89144,-2.46911 -0.8683,-2.42339 -1.7829,-4.93823 -2.32702,-7.45306 -0.3589,-1.58892 -0.19682,-2.97208 0.47466,-3.97802 0.59044,-0.89162 1.5745,-1.49747 2.848,-1.74895 1.73658,-0.38866 3.21846,-0.21719 4.29514,0.52583 1.05353,0.68586 1.73658,1.86326 2.04917,3.49791 0.38205,1.94328 0.60201,3.95515 0.82198,5.89843 0.23154,2.10332 0.47467,4.27522 0.90302,6.38997 2.15336,10.69948 7.71043,18.99844 16.48595,24.67968 0.20839,1.10882 0.30101,1.55463 0.3589,2.54913 l -0.17366,-0.11431 -0.0926,1.10882 c -0.76409,9.72784 -5.46444,17.08945 -12.24869,25.15979 -3.95941,4.6753 -4.573,8.98482 -2.04917,13.9802 1.44716,2.84633 2.7438,5.84128 4.00572,8.74477 0.64832,1.49747 1.29665,3.00637 1.96813,4.49241 2.10705,4.66388 3.25319,9.96789 3.47316,16.19783 0.0579,1.86326 0.57886,3.26928 2.88273,4.06946 0.90302,0.30864 1.99128,0.83447 2.14178,1.55463 0.1505,0.6287 -0.38205,1.53176 -1.51661,2.60628 -1.11142,1.05166 -2.10706,2.1719 -3.27636,3.47505 -0.5557,0.64014 -1.16929,1.326 -1.8292,2.05759 l -0.97248,1.06309 h 23.4207 l -0.42836,-0.90306 c -0.54413,-1.16597 -1.03037,-2.3205 -1.51661,-3.45218 -1.05353,-2.43482 -2.03759,-4.75533 -3.45001,-6.83578 -6.81898,-10.05934 -9.81748,-21.13605 -11.82034,-30.64671 -0.59043,-2.74345 -0.0116,-4.69817 1.86394,-6.30995 1.48188,-1.26885 2.91745,-2.56056 4.38776,-3.87513 2.79011,-2.49197 5.68441,-5.0754 8.69449,-7.40734 1.48188,-1.13167 2.52383,-2.46911 3.28793,-4.12661 l 0.12734,-0.0343 3.16058,-5.40689 c 0.0463,0.75445 0.0347,1.53176 -0.0347,2.29764 l -0.19681,2.16048 c -0.41678,4.98394 -0.82198,10.15079 -1.5745,15.1576 -0.6599,4.3438 0.42836,7.79599 3.42685,10.87095 l 0.86829,0.91448 c 4.9319,5.08683 10.02587,10.34512 14.65676,15.83204 1.77131,2.10331 3.25319,4.54956 4.66561,6.92723 0.81041,1.36029 1.65554,2.74345 2.55857,4.08089 0.63674,0.96021 1.60923,1.80611 2.57014,2.18333 2.47752,1.00594 2.68591,1.42889 1.78289,3.72653 -0.33574,0.89163 -0.74094,1.74896 -1.21561,2.7206 -0.20839,0.42295 -0.41678,0.85733 -0.63674,1.326 l -0.41678,0.90306 h 19.61179 l -0.17365,-0.78875 c -1.12299,-4.92679 -3.95941,-8.67618 -6.58744,-11.65969 -2.82484,-3.23499 -5.59179,-6.51571 -8.37032,-9.785 -3.80891,-4.49241 -7.75674,-9.12199 -11.7393,-13.60297 -3.11427,-3.47505 -4.12148,-7.55594 -3.09111,-12.45987 0.49782,-2.40053 1.00721,-4.81248 1.50503,-7.20158 2.00286,-9.65925 4.08676,-19.66144 6.59902,-29.35499 1.92181,-7.41877 3.16058,-13.66013 0.32416,-20.58736 -2.09548,-5.13255 -0.79883,-10.20795 3.64682,-14.28884 l 1.00722,-0.93735 c 3.21846,-2.97208 6.54112,-6.0356 10.30372,-8.03604 12.94332,-6.84721 21.47573,-17.70673 28.12105,-27.43457 l 2.04916,-3.02924 c 0.0347,-0.0343 0.0926,-0.0915 0.16209,-0.12574 0,-0.0114 0,-0.0114 0,-0.0114 l 1.16929,0.38865 c 1.19246,0.38866 2.41964,0.80018 3.64683,1.2117 2.67433,0.91448 4.82769,0.1486 6.49481,-2.27478 5.0824,-7.4302 11.78561,-17.22663 18.65089,-27.1488 1.37769,-1.97758 2.89431,-4.09232 4.63089,-6.00131 0.78725,-0.8459 1.56292,-1.31458 2.18809,-1.31458 0.0926,0 0.16208,0 0.2547,0.0343 0.60201,0.12574 1.11141,0.83446 1.43557,1.95471 0.97249,3.39503 1.62081,6.98438 2.23441,10.43657 0.19681,1.05166 0.38204,2.11475 0.57886,3.16641 0.16208,0.88019 0.21996,1.74895 0.27785,2.6863 0.0347,0.4801 0.0463,0.97164 0.10419,1.47461 0.16209,1.63464 0.0695,2.43481 -0.27785,2.86919 -0.33574,0.38866 -1.0651,0.62871 -2.31544,0.73159 -4.12149,0.32007 -4.8277,2.80062 -4.98978,5.44119 -0.31258,4.76676 -0.31258,9.44207 3.05638,14.23169 l 0.48625,0.67443 0.53255,-0.62871 c 0.94933,-1.09738 1.92182,-2.13761 2.88273,-3.1664 2.09547,-2.22906 4.07517,-4.34381 5.5339,-6.81292 6.71479,-11.41964 6.59901,-11.89975 3.61209,-24.34819 l -0.52097,-2.13761 c -1.11141,-4.49241 -2.24598,-9.12199 -1.84078,-13.88875 0.0926,-0.9945 -1.07668,-2.5377 -2.10705,-2.80061 -3.47316,-0.90306 -6.56428,-1.49747 -9.50489,-1.8404 -0.0926,-0.0114 -0.19681,-0.0114 -0.27786,-0.0114 -1.23876,0 -2.57014,0.81161 -3.48474,1.47461 -4.67719,3.30358 -9.2965,6.66432 -13.93896,10.02505 l -0.23155,0.17147 0.33574,-2.22906 c 0.63675,-1.13168 0.96091,-2.43482 0.98407,-3.97801 l 2.9985,-1.96615 0.17365,-0.16003 c 0.30101,-0.42295 0.55571,-0.78875 0.81041,-1.10882 0.46309,-0.61727 0.82198,-1.10881 1.12299,-1.6575 1.89866,-3.49791 3.77417,-6.98439 5.64968,-10.4823 l 3.49632,-6.55 c 1.33138,-2.46911 2.40806,-4.05803 3.68155,-4.3781 1.0651,-0.17147 2.51226,0.29721 4.9782,1.94328 3.49632,2.33194 6.74952,5.18971 9.9101,7.9446 1.05352,0.91448 2.09547,1.85183 3.16057,2.75489 1.6787,1.44031 1.40085,3.1664 0.46309,5.31544 -1.88708,4.27522 0.2547,6.32139 2.39649,7.30446 2.24598,1.00593 4.66561,1.6918 7.01579,2.36623 1.00722,0.29721 2.02601,0.58299 3.02165,0.89162 l 0.38205,0.12575 1.21561,-1.26885 z m 480.7322,133.21772 c -0.0695,4.45812 -0.15051,9.06484 0.39362,13.55725 0.64833,5.39547 3.2532,9.76213 7.51361,12.66563 l 1.81763,1.22312 -0.85672,-2.00044 c -3.9131,-9.15628 -3.76259,-18.79268 -3.61209,-28.08614 0.20839,-13.19146 0.26628,-24.26817 -0.1505,-35.44775 -0.27785,-7.37305 -2.04917,-14.31171 -5.25606,-20.62166 -2.94061,-5.7384 -7.51361,-9.15629 -13.2096,-9.84215 -4.12148,-0.48011 -8.47452,-0.20576 -12.64231,0.0915 l -2.32702,0.16003 c -2.5933,0.14861 -4.83928,0.11431 -7.02737,-1.68037 -6.77267,-5.60122 -13.51061,-10.96239 -20.00543,-15.94634 -10.19952,-7.84172 -17.53947,-16.19783 -22.45979,-25.55988 -1.77131,-3.38359 -3.04481,-6.82435 -3.8089,-10.31082 2.43121,5.87557 5.4876,11.00812 9.22704,15.55768 6.13592,7.48736 11.72771,12.37986 18.0836,15.84347 l 2.62803,1.42888 -1.80604,-2.36623 c -3.84364,-5.0411 -6.15908,-10.02505 -7.08526,-15.26048 -1.25034,-7.08726 -3.87836,-13.6487 -7.83777,-19.54713 6.33273,5.01824 11.17201,11.24817 14.71464,18.97558 l 0.68305,1.46317 0.52098,-1.52033 c 0.21996,-0.64014 0.27785,-1.13167 0.19681,-1.64607 -3.53105,-16.26642 -9.00707,-27.42314 -17.75945,-36.17934 -1.99128,-1.97758 -3.92467,-4.561 -5.88122,-7.91031 -1.37769,-2.36623 -2.00286,-5.13255 -1.75974,-7.41876 1.97971,2.66344 4.10991,5.24686 6.17066,7.73883 4.44565,5.36118 9.03022,10.91668 12.08661,17.38666 l 1.40084,3.00638 -0.19681,-3.29215 c -0.0695,-1.42889 -0.20839,-3.12069 -0.62517,-4.77819 -1.49346,-6.14992 -3.90152,-12.25411 -7.52519,-19.03274 4.78139,4.50385 7.20103,10.28797 8.93761,15.5234 l 0.6599,2.00044 0.55571,-2.0233 c 0.301,-1.06309 0.47466,-2.10332 0.57886,-3.3836 1.25034,-14.34599 -3.21847,-23.82235 -14.10105,-29.82367 -2.84799,-1.57748 -5.52233,-3.44075 -7.95354,-5.5555 -1.29665,-1.10881 -2.37333,-2.44625 -3.48474,-3.88656 0.84513,0.38865 1.67869,0.77731 2.51225,1.15454 3.86679,1.73752 7.52519,3.39502 11.13728,5.25829 2.90588,1.48604 5.85807,3.3836 9.28492,5.96702 0.97249,0.70873 1.77132,1.78325 2.61645,2.88063 0.41678,0.54869 0.84514,1.13168 1.31981,1.70323 l 1.1693,1.38316 -0.0116,-1.80611 c -0.0695,-4.91536 -1.73658,-8.95053 -4.95505,-11.96833 -2.7438,-2.59486 -5.75387,-4.96109 -8.68291,-7.2473 -1.35453,-1.07452 -2.73222,-2.13761 -4.08676,-3.24643 -0.33573,-0.27434 -0.69463,-0.53726 -1.0651,-0.80017 -0.92618,-0.68587 -1.81762,-1.33744 -2.43121,-2.17191 -0.32417,-0.43438 -0.41678,-1.16597 -0.48625,-1.92042 -0.0347,-0.20576 -0.0463,-0.38865 -0.0695,-0.59441 0.17366,-0.0457 0.33574,-0.10288 0.52097,-0.14861 0.63675,-0.19432 1.35454,-0.43438 1.64397,-0.26291 2.58172,1.1774 5.1287,2.5377 7.55992,3.82941 0.82198,0.45724 1.64396,0.89162 2.45437,1.29171 l 1.29665,0.68586 -0.38205,-1.39459 c -2.92904,-10.79093 -11.05624,-16.30071 -22.48295,-20.78169 0.0463,0 0.0695,0 0.11577,0 4.39934,0 7.99986,2.11475 11.76245,4.33238 l 2.80169,1.63464 -0.71779,-1.73752 c -3.04481,-7.37304 -8.16194,-11.22531 -15.65239,-11.73971 -1.92182,-0.1486 -3.86679,-0.42295 -5.75388,-0.68586 -0.16208,-0.0114 -0.32416,-0.0457 -0.48624,-0.0572 4.79297,-0.62871 8.50925,-2.29764 11.27621,-5.0754 l 0.97248,-0.9945 -4.54984,-0.32007 C 764.01496,9.25918 757.798,8.81337 751.56945,8.35612 l 14.7378,-2.3205 -4.573,-1.15454 C 756.73289,3.61223 751.59261,2.29766 746.54494,3.7494 c 1.34296,-0.80017 2.7438,-1.64607 4.272,-2.56056 l 1.8755,-1.13167 -2.19967,-0.0457 c -0.20839,0 -0.39362,0 -0.59043,0 -6.32116,0 -10.61631,1.79468 -13.40642,5.57836 l -12.01714,-4.44668 -0.53256,-0.20576 -0.70621,1.41745 0.12735,0.27435 c 1.30823,2.72059 2.61645,5.44119 3.98256,8.25323 -0.39362,0.17147 -0.71778,0.3315 -1.05352,0.49154 -6.42535,2.97208 -10.36161,7.00724 -12.3992,12.67706 -1.25034,3.50933 -3.63524,6.7329 -5.7886,9.43063 -2.46595,3.0521 -5.15186,5.98988 -7.76831,8.84765 -1.48189,1.60035 -2.95219,3.22356 -4.39934,4.85821 -1.55135,1.76038 -1.60924,4.73246 -0.98407,6.74433 0.53255,1.79468 1.59766,3.02923 2.89431,3.39503 2.59329,0.74302 5.24447,1.20026 8.03458,1.68036 1.13457,0.19433 2.29229,0.38866 3.45001,0.61728 l 0.64833,0.11431 0.10419,-0.64014 c 0.84514,-4.98395 3.75102,-7.48735 9.7017,-8.40184 2.14179,-0.32007 4.28357,-0.78874 6.36747,-1.23455 1.86393,-0.41152 3.79733,-0.83447 5.69599,-1.13168 5.41814,-0.89162 9.19231,-3.3493 11.4846,-7.53307 0,0.19432 -0.0116,0.36579 -0.0695,0.52583 -0.1505,0.43438 -0.301,0.88019 -0.43993,1.326 -0.62517,1.92042 -1.27349,3.93229 -2.39648,5.50978 -3.06797,4.35523 -6.55271,8.51615 -9.55121,12.00262 -3.43843,3.97802 -6.91159,7.93317 -10.39633,11.87689 -4.08676,4.66387 -8.32402,9.47635 -12.43393,14.26597 l -2.0839,-1.09738 c -1.29665,-1.44031 -2.55856,-2.8692 -3.77417,-4.27522 -2.8943,-3.29215 -5.62652,-6.4014 -8.60187,-9.33919 -5.36025,-5.29258 -13.52218,-5.38403 -19.43814,-0.1486 -0.8104,0.70873 -1.62081,1.46318 -2.41964,2.18333 -3.6584,3.37217 -7.44414,6.83579 -12.38761,8.51615 -0.92618,0.30864 -1.65555,1.39459 -2.03759,2.33194 l -0.70621,1.79468 c -1.53977,3.82941 -3.12585,7.81885 -4.43408,11.83116 -0.57886,1.74895 -0.84513,3.63508 -1.08825,5.44119 -0.11578,0.77731 -0.21997,1.53176 -0.3589,2.29765 l -0.0579,0.30863 1.2156,1.26885 0.38205,-0.12574 c 1.00722,-0.30864 2.00286,-0.59441 3.01008,-0.89162 2.32702,-0.67444 4.75823,-1.3603 7.01579,-2.36623 2.14178,-0.97164 4.28357,-3.01781 2.40806,-7.29303 -0.94933,-2.1719 -1.22719,-3.88656 0.46309,-5.33831 1.01879,-0.88019 2.02601,-1.76038 3.0448,-2.65201 3.18374,-2.80061 6.48324,-5.68124 10.02587,-8.04747 2.43121,-1.63464 3.76259,-2.13761 4.9782,-1.94328 1.25034,0.32007 2.32702,1.90899 3.6584,4.3781 l 3.04481,5.68124 c 2.03759,3.77225 4.07518,7.56737 6.11277,11.32819 0.32416,0.59442 0.71778,1.12025 1.2156,1.78325 0.21997,0.30864 0.47467,0.62871 0.75252,1.00593 l 3.149,2.12618 c 0.0463,1.5432 0.37048,2.84634 0.98407,3.96658 l 0.33574,2.21763 v 0.0114 l -0.21997,-0.16003 c -4.63089,-3.37217 -9.26177,-6.72147 -13.93896,-10.04791 -1.00722,-0.68587 -2.29229,-1.46318 -3.48475,-1.46318 -0.0926,0 -0.19681,0 -0.27785,0.0114 -2.92903,0.3315 -6.0433,0.93735 -9.52805,1.8404 -0.97248,0.26292 -2.21124,1.74896 -2.09547,2.80062 0.39362,4.7096 -0.71779,9.28203 -1.81762,13.72871 l -0.54413,2.29765 c -2.98692,12.44844 -3.1027,12.92854 3.60051,24.34818 1.45873,2.46911 3.43843,4.561 5.53391,6.79006 0.96091,1.04023 1.93339,2.06902 2.8943,3.17784 l 0.54413,0.62871 0.47467,-0.67444 c 3.33423,-4.77819 3.36897,-9.2706 3.05638,-14.23168 -0.16208,-2.64058 -0.86829,-5.12112 -4.98978,-5.44119 -1.27349,-0.10288 -1.9797,-0.3315 -2.31544,-0.73159 -0.37047,-0.42295 -0.43993,-1.23456 -0.30101,-2.85777 0.0579,-0.54869 0.0926,-1.09738 0.12735,-1.63464 0.0463,-0.89163 0.1042,-1.71466 0.2547,-2.5377 0.20839,-1.10881 0.41678,-2.22906 0.60202,-3.3493 0.62516,-3.39503 1.25033,-6.90437 2.21124,-10.24224 0.32417,-1.12025 0.82199,-1.81755 1.43558,-1.95472 0.60201,-0.22862 1.53977,0.32007 2.43121,1.28028 1.72501,1.89756 3.2532,4.01231 4.63089,6.02418 6.24012,9.00768 12.4455,18.06109 18.65089,27.12593 1.65554,2.43482 3.84363,3.21213 6.49481,2.27478 1.29665,-0.43438 2.5933,-0.88019 3.87837,-1.30314 l 0.92618,-0.30864 c 0.0463,0.0457 0.0926,0.0686 0.11577,0.11431 0.49782,0.70873 1.00722,1.46318 1.49346,2.18334 l 0.60202,0.88019 c 6.63374,9.72784 15.16614,20.58736 28.10947,27.43457 3.8089,2.01187 7.14314,5.09826 10.37318,8.0932 l 0.92618,0.8802 c 4.45723,4.06946 5.7423,9.14485 3.64682,14.28884 -2.83642,6.92722 -1.59766,13.16859 0.32416,20.58736 2.50068,9.62496 4.56142,19.5357 6.5527,29.12637 0.52098,2.48054 1.03038,4.96108 1.55135,7.43019 1.0651,4.98395 0.0926,8.95053 -3.06796,12.45987 -3.92468,4.40097 -7.81462,8.98483 -11.57721,13.39722 -2.83642,3.33787 -5.67284,6.67574 -8.54399,9.99076 -2.75537,3.1664 -5.47602,6.77862 -6.58743,11.65969 l -0.17366,0.78874 h 19.62338 l -0.41678,-0.90305 c -0.23155,-0.5144 -0.47467,-0.9945 -0.69464,-1.44032 -0.43993,-0.93734 -0.84513,-1.74895 -1.16929,-2.59485 -0.89145,-2.32051 -0.69464,-2.74346 1.80604,-3.74939 0.94933,-0.37723 1.91024,-1.2117 2.57014,-2.18334 0.89145,-1.31457 1.70185,-2.6863 2.50068,-4.0123 1.44715,-2.3891 2.91746,-4.86964 4.7235,-6.99582 4.71193,-5.57836 9.92168,-10.95097 14.94619,-16.14067 l 0.59043,-0.61728 c 2.98692,-3.07496 4.06361,-6.52714 3.41528,-10.87095 -0.70621,-4.76676 -1.12299,-9.64782 -1.51661,-14.39172 l -0.2547,-2.92635 c -0.0579,-0.78875 -0.0695,-1.55463 -0.0347,-2.29765 l 3.02165,5.17828 0.12735,0.21719 0.12735,0.0457 c 0.75252,1.63464 1.8292,2.98351 3.28793,4.12662 3.01007,2.33194 5.90437,4.91536 8.69448,7.40733 1.45873,1.31458 2.90588,2.60629 4.38777,3.87514 1.88708,1.62321 2.46594,3.56649 1.87551,6.30995 -2.03759,9.53351 -5.03609,20.64451 -11.84349,30.6467 -1.40085,2.08046 -2.39649,4.3781 -3.42686,6.81292 -0.48624,1.13168 -0.98406,2.29765 -1.53977,3.48648 l -0.42835,0.90305 h 23.39754 l -0.97248,-1.06309 c -0.68306,-0.75445 -1.29665,-1.44031 -1.87551,-2.10331 -1.13457,-1.28028 -2.13021,-2.40053 -3.21847,-3.42933 -1.13456,-1.09738 -1.66712,-1.97757 -1.53977,-2.60628 0.16208,-0.73159 1.25034,-1.25742 2.15337,-1.55463 2.26913,-0.80017 2.7901,-2.20619 2.88272,-4.06946 0.20839,-6.20707 1.33138,-11.51109 3.45001,-16.19783 0.6599,-1.48604 1.30823,-2.98351 1.96813,-4.49241 1.25034,-2.90349 2.55856,-5.89843 4.00571,-8.74477 2.53541,-4.98395 1.91024,-9.28203 -2.04916,-13.9802 -6.79583,-8.05891 -11.47302,-15.42052 -12.23712,-25.15979 l -0.0695,-1.06309 -0.17366,0.11431 c 0,-0.0114 0,-0.0114 -0.0116,-0.0343 0.0579,-0.97164 0.11578,-1.44032 0.33574,-2.56056 8.79868,-5.66981 14.35575,-13.9802 16.50911,-24.67969 0.41678,-2.08045 0.6599,-4.24092 0.90302,-6.32138 0.21997,-1.96614 0.43993,-4.0123 0.82198,-5.96702 0.31259,-1.63464 0.98407,-2.81204 2.03759,-3.49791 1.05353,-0.73158 2.52383,-0.93734 4.30673,-0.52583 1.27349,0.25149 2.24597,0.8459 2.83641,1.73753 0.6599,1.00593 0.84514,2.38909 0.48625,3.98944 -0.53256,2.46911 -1.43558,4.91536 -2.29229,7.29303 -0.31259,0.88019 -0.63675,1.74895 -0.92618,2.62914 -0.41678,1.1774 -0.85671,2.33194 -1.29665,3.49791 -0.90302,2.34337 -1.8292,4.77819 -2.39648,7.27016 -0.35889,1.65751 -0.1042,3.44075 0.12735,5.01824 0.0926,0.65157 0.19681,1.28028 0.23154,1.88613 l 0.21997,3.08639 1.01879,-2.92636 c 0.42836,-1.21169 0.79883,-2.43481 1.1693,-3.66937 0.82199,-2.70916 1.66712,-5.50978 3.05639,-7.93316 0.78725,-1.3603 1.71343,-2.66344 2.61645,-3.95515 1.29665,-1.84041 2.61645,-3.7151 3.60051,-5.82985 -0.0463,0.75445 -0.12735,1.52033 -0.31258,2.24049 -0.94934,3.79511 -2.13021,7.47592 -3.14901,10.57374 -2.51225,7.46449 -5.05924,16.31214 -5.02451,25.51415 0.0116,4.03517 0.46309,8.25324 3.54263,11.75115 l 1.33138,1.48603 -0.20839,-1.96614 c -0.48624,-4.81248 0.32416,-9.62496 2.52383,-15.14617 1.43558,-3.55506 2.88273,-7.0987 4.32988,-10.64233 l 0.62517,-1.53176 c 0,0.59441 -0.0695,1.16597 -0.19681,1.71466 -1.1693,5.5555 -2.21125,10.12793 -3.28793,14.39172 -2.46595,9.73927 -4.30672,18.5412 -1.75974,27.68606 1.97971,7.05297 4.66562,14.30027 10.94047,19.42139 1.33138,1.07452 2.88273,1.90899 4.38776,2.70916 0.68306,0.36579 1.35454,0.74302 2.02602,1.12025 l 0.53255,0.32007 0.98406,-1.53177 -0.30101,-0.35436 c -6.00857,-7.36161 -8.56714,-16.24355 -7.82619,-27.12594 0.39362,-5.96701 1.16929,-12.01405 1.93339,-17.88962 -0.0463,1.58892 -0.10419,3.1664 -0.12735,4.75532 z"
   id="path2"
   inkscape:connector-curvature="0"
   style="stroke-width:1" />
</svg>